<?xml version="1.0" standalone="no"?>
<!DOCTYPE svg PUBLIC "-//W3C//DTD SVG 1.1//EN" "http://www.w3.org/Graphics/SVG/1.1/DTD/svg11.dtd" >
<svg>
<metadata>
Created by FontForge 20120731 at Fri Oct 31 08:49:18 2014
 By Orthosie Webhosting
Copyright 1990-2001 Bitstream Inc. All rights reserved.
</metadata>
<defs>
<font id="NewsGothBTBold" horiz-adv-x="1024" >
  <font-face 
    font-family="NewsGothBTBold"
    font-weight="700"
    font-stretch="normal"
    units-per-em="2048"
    panose-1="2 11 7 3 2 2 3 2 2 4"
    ascent="1556"
    descent="-492"
    x-height="1073"
    cap-height="1489"
    bbox="-342 -483 2648 1972"
    underline-thickness="174"
    underline-position="-108"
    unicode-range="U+0020-F002"
  />
<missing-glyph horiz-adv-x="1229" 
d="M102 -362v1806h1024v-1806h-1024zM217 -248h795v1577h-795v-1577z" />
    <glyph glyph-name=".notdef" horiz-adv-x="1229" 
d="M102 -362v1806h1024v-1806h-1024zM217 -248h795v1577h-795v-1577z" />
    <glyph glyph-name=".null" horiz-adv-x="0" 
 />
    <glyph glyph-name="nonmarkingreturn" horiz-adv-x="621" 
 />
    <glyph glyph-name="space" unicode=" " horiz-adv-x="621" 
 />
    <glyph glyph-name="exclam" unicode="!" horiz-adv-x="664" 
d="M229 502l-51 987h295l-53 -987h-191zM188 0v295h275v-295h-275z" />
    <glyph glyph-name="quotedbl" unicode="&#x22;" horiz-adv-x="643" 
d="M395 1436h164v-557h-164v557zM86 1436h164v-557h-164v557z" />
    <glyph glyph-name="numbersign" unicode="#" horiz-adv-x="1575" 
d="M709 852l-91 -254h256l91 254h-256zM735 1460h191l-154 -436h250l156 436h190l-154 -436h291l-59 -172h-293l-90 -252h309l-61 -172h-307l-156 -434h-191l156 434h-252l-158 -434h-190l156 434h-299l61 172h297l90 252h-315l61 172h316z" />
    <glyph glyph-name="dollar" unicode="$" horiz-adv-x="1241" 
d="M670 219q111 0 168 46.5t57 137.5q0 92 -52.5 143t-172.5 77v-404zM543 915v365q-107 -5 -163 -50t-56 -126q0 -78 51 -122t168 -67zM90 256l166 164q72 -93 141.5 -140t145.5 -54v438q-230 49 -338.5 152t-108.5 271q0 176 119 282.5t328 117.5v139h127v-139
q127 -12 230.5 -65t193.5 -152l-162 -170q-58 81 -121.5 122.5t-140.5 47.5v-398q253 -63 361 -169t108 -287q0 -186 -126.5 -298.5t-342.5 -117.5v-203h-127v203q-144 14 -256 77.5t-197 178.5z" />
    <glyph glyph-name="percent" unicode="%" horiz-adv-x="1802" 
d="M1202 346q0 -70 48.5 -119t117.5 -49q70 0 119 49t49 119t-49 118t-119 48t-118 -48t-48 -118zM999 346q0 155 106.5 261t262.5 106t262.5 -106t106.5 -261q0 -154 -108.5 -262.5t-260.5 -108.5q-153 0 -261 108.5t-108 262.5zM264 1139q0 -70 49 -118t119 -48t118 48
t48 118q0 69 -48 117.5t-118 48.5t-119 -48.5t-49 -117.5zM373 -25l882 1532h172l-884 -1532h-170zM63 1139q0 156 106.5 262t262.5 106q155 0 262 -106.5t107 -261.5q0 -154 -108.5 -261.5t-260.5 -107.5q-153 0 -261 107.5t-108 261.5z" />
    <glyph glyph-name="ampersand" unicode="&#x26;" horiz-adv-x="1350" 
d="M520 944q74 38 120 106t46 134q0 72 -30 110.5t-87 38.5q-59 0 -93 -42t-34 -117q0 -55 20 -113t58 -117zM735 295q-76 81 -144 159.5t-130 155.5q-57 -33 -84 -79t-27 -109q0 -88 63.5 -147.5t155.5 -59.5q46 0 86 19t80 61zM322 805q-59 78 -88 160.5t-29 169.5
q0 174 94.5 273t261.5 99q168 0 265.5 -89t97.5 -242q0 -115 -63 -215t-202 -205q43 -59 104 -124.5t150 -148.5q35 61 65 128t54 139l232 -70q-36 -102 -80.5 -191t-100.5 -170q62 -40 111 -61.5t90 -26.5v-267q-93 2 -180 42t-178 121q-93 -82 -192.5 -121t-215.5 -39
q-195 0 -316.5 122t-121.5 317q0 118 57.5 213.5t184.5 185.5z" />
    <glyph glyph-name="quotesingle" unicode="'" horiz-adv-x="334" 
d="M86 1436h164v-557h-164v557z" />
    <glyph glyph-name="parenleft" unicode="(" horiz-adv-x="664" 
d="M371 -178q-141 194 -211 403t-70 439t70 440t211 403h231q-144 -205 -213.5 -411t-69.5 -432q0 -225 69.5 -431t213.5 -411h-231z" />
    <glyph glyph-name="parenright" unicode=")" horiz-adv-x="664" 
d="M51 -178q145 205 214 411t69 431q0 226 -69 432t-214 411h234q140 -192 209 -402t69 -441q0 -232 -69 -440.5t-209 -401.5h-234z" />
    <glyph glyph-name="asterisk" unicode="*" 
d="M512 979l-166 -322l-168 125l254 254l-354 62l65 196l320 -164l-47 359h192l-47 -359l320 164l65 -196l-354 -62l254 -254l-168 -125z" />
    <glyph glyph-name="plus" unicode="+" horiz-adv-x="1706" 
d="M768 1221h170v-527h514v-166h-514v-528h-170v528h-514v166h514v527z" />
    <glyph glyph-name="comma" unicode="," horiz-adv-x="621" 
d="M170 6v291h281v-309l-138 -293h-129l99 311h-113z" />
    <glyph glyph-name="hyphen" unicode="-" horiz-adv-x="676" 
d="M102 426v221h459v-221h-459z" />
    <glyph glyph-name="period" unicode="." horiz-adv-x="621" 
d="M170 0v297h281v-297h-281z" />
    <glyph glyph-name="slash" unicode="/" horiz-adv-x="559" 
d="M-100 -190l551 1697h155l-551 -1697h-155z" />
    <glyph glyph-name="zero" unicode="0" horiz-adv-x="1241" 
d="M350 741q0 -263 69 -399.5t202 -136.5t200.5 135.5t67.5 400.5q0 267 -68 403t-200 136q-133 0 -202 -137.5t-69 -401.5zM86 741q0 378 135.5 572t399.5 194q263 0 398.5 -194t135.5 -572t-135.5 -572t-398.5 -194q-264 0 -399.5 194t-135.5 572z" />
    <glyph glyph-name="one" unicode="1" horiz-adv-x="1241" 
d="M270 0v209h232v1020q-66 0 -131.5 -4.5t-126.5 -12.5v174q105 21 191.5 51t156.5 70h170v-1298h231v-209h-723z" />
    <glyph glyph-name="two" unicode="2" horiz-adv-x="1241" 
d="M109 0v268q52 86 135 170.5t262 223.5h1q327 254 327 419q0 92 -57.5 145.5t-155.5 53.5q-102 0 -170 -63t-80 -168l-254 47q37 193 172.5 302t341.5 109q211 0 342 -121.5t131 -316.5q0 -139 -81 -258t-288 -272q-39 -30 -110 -81q-211 -152 -246 -222h717v-236h-987z
" />
    <glyph glyph-name="three" unicode="3" horiz-adv-x="1241" 
d="M45 268l213 131q64 -99 138 -146.5t165 -47.5q112 0 184 65.5t72 165.5q0 122 -97 182t-294 60h-49v223q11 -1 23.5 -1.5t37.5 -0.5q165 0 251.5 53.5t86.5 155.5q0 82 -59 132t-156 50q-84 0 -153.5 -37t-120.5 -110l-183 143q76 107 197.5 164t273.5 57
q209 0 335 -103.5t126 -273.5q0 -114 -54.5 -197t-162.5 -132q128 -37 196 -134.5t68 -242.5q0 -208 -136 -328.5t-372 -120.5q-182 0 -315.5 73.5t-214.5 219.5z" />
    <glyph glyph-name="four" unicode="4" horiz-adv-x="1241" 
d="M244 553h465v645zM705 -12v352h-664v266l635 883h276v-934h213v-215h-213v-352h-247z" />
    <glyph glyph-name="five" unicode="5" horiz-adv-x="1241" 
d="M102 256l232 113q41 -82 108 -124t154 -42q116 0 190 87t74 226q0 119 -68.5 191.5t-181.5 72.5q-73 0 -131.5 -34t-93.5 -99l-211 49l62 789h794v-238h-596l-16 -332q44 43 106 63.5t146 20.5q205 0 332.5 -136.5t127.5 -358.5q0 -244 -142.5 -386.5t-387.5 -142.5
q-172 0 -298.5 71.5t-199.5 209.5z" />
    <glyph glyph-name="six" unicode="6" horiz-adv-x="1241" 
d="M363 550q7 -166 78.5 -258.5t193.5 -92.5q108 0 178 73t70 187q0 125 -68.5 199.5t-181.5 74.5q-95 0 -169 -49.5t-101 -133.5zM371 836q71 59 150.5 87.5t170.5 28.5q197 0 324 -132.5t127 -338.5q0 -237 -137 -371.5t-379 -134.5q-254 0 -389.5 178t-135.5 511
q0 391 166.5 617t452.5 226q114 0 210 -28t173 -84l-113 -201q-78 49 -142 70.5t-130 21.5q-144 0 -240.5 -123t-107.5 -327z" />
    <glyph glyph-name="seven" unicode="7" horiz-adv-x="1241" 
d="M238 -12l573 1253h-696v244h1005v-164l-592 -1333h-290z" />
    <glyph glyph-name="eight" unicode="8" horiz-adv-x="1241" 
d="M604 670q-126 -43 -192 -112.5t-66 -160.5t72 -146.5t190 -55.5q133 0 209 54.5t76 149.5q0 82 -72 149.5t-217 121.5zM629 907q113 36 166 89.5t53 131.5q0 80 -59 125t-162 45q-109 0 -170.5 -42t-61.5 -117q0 -87 59.5 -145.5t174.5 -86.5zM365 786
q-121 69 -175.5 152t-54.5 201q0 170 129.5 269t353.5 99q230 0 358 -101.5t128 -281.5q0 -111 -57 -195.5t-168 -135.5q145 -76 211.5 -171.5t66.5 -228.5q0 -197 -146.5 -307.5t-408.5 -110.5q-246 0 -386 110t-140 302q0 133 70.5 230.5t218.5 168.5z" />
    <glyph glyph-name="nine" unicode="9" horiz-adv-x="1241" 
d="M858 934q-8 168 -79 260t-193 92q-108 0 -178 -73.5t-70 -188.5q0 -125 68.5 -199.5t181.5 -74.5q95 0 168.5 50.5t101.5 133.5zM850 649q-72 -59 -151 -88t-171 -29q-196 0 -323 132t-127 337q0 238 137 372t379 134q250 0 387 -179.5t137 -508.5q0 -391 -166.5 -617.5
t-451.5 -226.5q-113 0 -209 28.5t-172 84.5l110 201q78 -49 142.5 -70.5t130.5 -21.5q143 0 239.5 124t108.5 328z" />
    <glyph glyph-name="colon" unicode=":" horiz-adv-x="668" 
d="M168 0v287h281v-287h-281zM168 618v287h281v-287h-281z" />
    <glyph glyph-name="semicolon" unicode=";" horiz-adv-x="668" 
d="M168 6v291h281v-309l-138 -293h-129l99 311h-113zM168 618v287h281v-287h-281z" />
    <glyph glyph-name="less" unicode="&#x3c;" horiz-adv-x="1706" 
d="M1442 1176v-185l-934 -381l934 -381v-182l-1178 483v160z" />
    <glyph glyph-name="equal" unicode="=" horiz-adv-x="1706" 
d="M254 487h1198v-165h-1198v165zM254 901h1198v-168h-1198v168z" />
    <glyph glyph-name="greater" unicode="&#x3e;" horiz-adv-x="1706" 
d="M264 1176l1178 -486v-160l-1178 -483v182l934 381l-934 381v185z" />
    <glyph glyph-name="question" unicode="?" horiz-adv-x="897" 
d="M291 500q-1 14 -1.5 30.5t-0.5 47.5q0 102 23 173.5t81 145.5q15 19 42 53q120 151 120 221q0 56 -36 91.5t-91 35.5q-65 0 -106 -44.5t-66 -141.5l-233 72q33 152 142 237.5t269 85.5q178 0 282.5 -87t104.5 -234q0 -141 -144 -309q-39 -45 -56 -68
q-54 -71 -74.5 -129.5t-20.5 -132.5q0 -19 0.5 -28.5t1.5 -18.5h-237zM268 0v295h285v-295h-285z" />
    <glyph glyph-name="at" unicode="@" horiz-adv-x="2048" 
d="M1174 283q-55 -87 -128 -127.5t-176 -40.5q-152 0 -232.5 86.5t-80.5 249.5q0 233 138 395t333 162q89 0 149 -34.5t99 -107.5l55 107h154l-148 -586q-1 -5 -2 -12q-6 -28 -6 -37q0 -38 26.5 -61t69.5 -23q51 0 107.5 30.5t105.5 84.5q72 76 110 177.5t38 215.5
q0 253 -187 411t-489 158q-138 0 -256 -31t-215 -94q-181 -113 -279 -291t-98 -395q0 -312 209.5 -499t558.5 -187q166 0 323.5 49t291.5 142l67 -99q-149 -113 -318.5 -170t-355.5 -57q-192 0 -351 48t-281 142q-155 118 -231.5 275.5t-76.5 357.5q0 165 52 313.5
t153 272.5q147 179 353.5 272t459.5 93q166 0 315 -45.5t255 -127.5q132 -102 198 -235.5t66 -300.5q0 -162 -65 -302t-185 -237q-69 -55 -150 -83.5t-168 -28.5q-106 0 -157 40.5t-51 125.5v4zM1233 707q-14 84 -61.5 130t-122.5 46q-127 0 -217.5 -128.5t-90.5 -310.5
q0 -98 45.5 -151t128.5 -53q90 0 163.5 66.5t99.5 172.5z" />
    <glyph glyph-name="A" unicode="A" horiz-adv-x="1264" 
d="M436 563h379l-190 666zM8 0l449 1489h350l448 -1489h-280l-92 326h-514l-95 -326h-266z" />
    <glyph glyph-name="B" unicode="B" horiz-adv-x="1352" 
d="M430 893h229q131 0 196 46t65 138q0 96 -65 139.5t-212 43.5h-213v-367zM430 229h229q152 0 221.5 53.5t69.5 170.5q0 109 -68.5 163t-209.5 54h-242v-441zM156 0v1489h540q244 0 372 -101t128 -294q0 -108 -52.5 -183.5t-164.5 -130.5q126 -43 189 -133.5t63 -228.5
q0 -211 -135.5 -314.5t-413.5 -103.5h-526z" />
    <glyph glyph-name="C" unicode="C" horiz-adv-x="1266" 
d="M952 444l258 -71q-55 -193 -196 -295.5t-352 -102.5q-290 0 -438 193t-148 569q0 369 157 569.5t445 200.5q201 0 330 -100t172 -289l-258 -63q-28 107 -93.5 162t-166.5 55q-152 0 -227 -133.5t-75 -403.5q0 -262 75 -387t233 -125q103 0 179 59.5t105 161.5z" />
    <glyph glyph-name="D" unicode="D" horiz-adv-x="1405" 
d="M449 246h153q230 0 332 118.5t102 385.5q0 253 -106 372t-332 119h-149v-995zM168 0v1489h455q345 0 521.5 -187t176.5 -552q0 -374 -177.5 -562t-531.5 -188h-444z" />
    <glyph glyph-name="E" unicode="E" horiz-adv-x="1233" 
d="M174 0v1489h967v-242h-688v-352h501v-238h-501v-403h718v-254h-997z" />
    <glyph glyph-name="F" unicode="F" horiz-adv-x="1157" 
d="M166 0v1489h940v-242h-657v-350h497v-242h-497v-655h-283z" />
    <glyph glyph-name="G" unicode="G" horiz-adv-x="1370" 
d="M1051 0l-15 156q-70 -93 -166 -137t-227 -44q-266 0 -416.5 208t-150.5 577q0 353 162.5 550t453.5 197q200 0 334.5 -97t190.5 -280l-254 -63q-45 105 -113 156t-164 51q-160 0 -243 -134.5t-83 -396.5q0 -252 82.5 -387t235.5 -135q120 0 198.5 80t96.5 221h-279v234
h555v-756h-198z" />
    <glyph glyph-name="H" unicode="H" horiz-adv-x="1460" 
d="M166 0v1489h280v-590h568v590h280v-1489h-280v647h-568v-647h-280z" />
    <glyph glyph-name="I" unicode="I" horiz-adv-x="672" 
d="M195 0v1489h282v-1489h-282z" />
    <glyph glyph-name="J" unicode="J" horiz-adv-x="901" 
d="M-14 182l207 156q26 -58 58.5 -84.5t76.5 -26.5q67 0 97 45.5t30 149.5v1067h282v-1059q0 -234 -98 -344.5t-305 -110.5q-113 0 -199.5 52t-148.5 155z" />
    <glyph glyph-name="K" unicode="K" horiz-adv-x="1352" 
d="M158 0v1489h278v-688l498 688h319l-419 -543l489 -946h-319l-357 705l-211 -269v-436h-278z" />
    <glyph glyph-name="L" unicode="L" horiz-adv-x="1120" 
d="M164 0v1489h285v-1235h628v-254h-913z" />
    <glyph glyph-name="M" unicode="M" horiz-adv-x="1733" 
d="M166 0v1489h401l215 -723q30 -97 50.5 -190t31.5 -181q18 83 41 170.5t56 196.5l219 727h385v-1489h-240v1249q-19 -83 -41 -165t-47 -164l-272 -920h-205l-264 920q-41 144 -58.5 210.5t-29.5 118.5v-1249h-242z" />
    <glyph glyph-name="N" unicode="N" horiz-adv-x="1460" 
d="M162 0v1489h299l428 -748q49 -87 91 -176t77 -180q-11 66 -16 141.5t-5 161.5v801h260v-1489h-260l-465 768q-38 65 -80.5 156t-87.5 202q10 -61 14.5 -134t4.5 -169v-823h-260z" />
    <glyph glyph-name="O" unicode="O" horiz-adv-x="1389" 
d="M360 741q0 -253 85 -383.5t249 -130.5t249 130.5t85 383.5q0 255 -85 387t-249 132t-249 -132t-85 -387zM76 741q0 361 164 563.5t454 202.5t454.5 -202.5t164.5 -563.5q0 -359 -165 -562.5t-454 -203.5q-288 0 -453 203.5t-165 562.5z" />
    <glyph glyph-name="P" unicode="P" horiz-adv-x="1298" 
d="M449 838h208q154 0 217.5 48t63.5 161q0 114 -63.5 162t-217.5 48h-208v-419zM166 0v1489h532q263 0 392 -109.5t129 -332.5q0 -218 -126 -331.5t-368 -113.5h-276v-602h-283z" />
    <glyph glyph-name="Q" unicode="Q" horiz-adv-x="1389" 
d="M870 285q-31 48 -73 77t-99 41v254q94 -6 166.5 -48t132.5 -126q16 39 23.5 98.5t7.5 139.5q0 269 -83.5 404t-250.5 135q-164 0 -249 -132t-85 -387q0 -253 85 -383.5t249 -130.5q50 0 93.5 14.5t82.5 43.5zM1350 -113h-29q-99 0 -174 40t-146 128q-66 -41 -141 -60.5
t-166 -19.5q-288 0 -453 203.5t-165 562.5q0 361 164 563.5t454 202.5t454.5 -202.5t164.5 -563.5q0 -164 -35 -295.5t-102 -222.5q40 -41 83 -62t90 -24z" />
    <glyph glyph-name="R" unicode="R" horiz-adv-x="1366" 
d="M440 840h244q135 0 198.5 50t63.5 157q0 106 -63.5 156t-198.5 50h-244v-413zM166 0v1489h504q283 0 421 -109.5t138 -335.5q0 -145 -71 -242t-204 -134l330 -668h-301l-287 604h-256v-604h-274z" />
    <glyph glyph-name="S" unicode="S" horiz-adv-x="1200" 
d="M55 336l254 113q59 -119 131.5 -173.5t171.5 -54.5q112 0 177 51t65 138q0 69 -48 115.5t-173 92.5q-17 7 -49 18q-219 80 -305 136q-85 54 -130 138t-45 190q0 180 134.5 292.5t351.5 112.5q190 0 316.5 -82t185.5 -243l-254 -93q-47 100 -111 145.5t-158 45.5
q-91 0 -143.5 -42.5t-52.5 -115.5q0 -113 257 -214q79 -31 124 -50q215 -91 292.5 -186t77.5 -248q0 -206 -135 -324t-371 -118q-205 0 -347.5 90t-215.5 266z" />
    <glyph glyph-name="T" unicode="T" horiz-adv-x="1147" 
d="M432 0v1243h-391v246h1065v-246h-391v-1243h-283z" />
    <glyph glyph-name="U" unicode="U" horiz-adv-x="1460" 
d="M166 547v942h280v-954q0 -166 67 -240t216 -74q158 0 225.5 71.5t67.5 242.5v954h272v-987q0 -254 -146.5 -390.5t-418.5 -136.5q-284 0 -423.5 141.5t-139.5 430.5z" />
    <glyph glyph-name="V" unicode="V" horiz-adv-x="1264" 
d="M457 0l-445 1489h281l340 -1215l336 1215h282l-444 -1489h-350z" />
    <glyph glyph-name="W" unicode="W" horiz-adv-x="1933" 
d="M412 0l-383 1489h274l213 -856q12 -49 27.5 -135t31.5 -198q7 112 50 283q7 29 10 42l217 864h240l206 -856q12 -49 27.5 -135t32.5 -199q6 73 20 153.5t37 172.5l217 864h275l-383 -1489h-310l-186 745q-25 105 -40 184t-21 148q-14 -103 -29 -187t-29 -140l-190 -750
h-307z" />
    <glyph glyph-name="X" unicode="X" horiz-adv-x="1165" 
d="M20 0l420 756l-399 733h301l246 -473l252 473h274l-389 -711l432 -778h-311l-266 539l-281 -539h-279z" />
    <glyph glyph-name="Y" unicode="Y" horiz-adv-x="1147" 
d="M436 0v588l-432 901h295l287 -619l282 619h275l-426 -899v-590h-281z" />
    <glyph glyph-name="Z" unicode="Z" horiz-adv-x="1120" 
d="M31 0v246l721 1001h-672v242h983v-234l-731 -1009h741v-246h-1042z" />
    <glyph glyph-name="bracketleft" unicode="[" horiz-adv-x="670" 
d="M188 -160v1649h474v-127h-252v-1395h252v-127h-474z" />
    <glyph glyph-name="backslash" unicode="\" horiz-adv-x="559" 
d="M506 -190l-551 1697h154l550 -1697h-153z" />
    <glyph glyph-name="bracketright" unicode="]" horiz-adv-x="670" 
d="M8 -160v127h254v1395h-254v127h473v-1649h-473z" />
    <glyph glyph-name="asciicircum" unicode="^" horiz-adv-x="2048" 
d="M915 1460h218l495 -561h-207l-397 397l-399 -397h-207z" />
    <glyph glyph-name="underscore" unicode="_" 
d="M0 -311h1024v-172h-1024v172z" />
    <glyph glyph-name="grave" unicode="`" 
d="M219 1556h258l197 -368h-142z" />
    <glyph glyph-name="a" unicode="a" horiz-adv-x="1049" 
d="M664 522q-183 -25 -267 -79.5t-84 -147.5q0 -55 30 -85t85 -30q60 0 118.5 28t117.5 85v229zM692 0l-22 94q-73 -53 -153 -79.5t-167 -26.5q-134 0 -210.5 76t-76.5 210q0 176 147.5 277.5t461.5 140.5v84q0 59 -39.5 91t-112.5 32t-132.5 -31t-102.5 -92l-172 109
q67 104 170 156.5t241 52.5q186 0 290 -84t104 -234v-631q0 -25 4 -60.5t12 -84.5h-242z" />
    <glyph glyph-name="b" unicode="b" horiz-adv-x="1118" 
d="M383 285q50 -49 95.5 -70.5t94.5 -21.5q109 0 168.5 89.5t59.5 254.5q0 164 -60 256t-166 92q-48 0 -93.5 -21.5t-98.5 -68.5v-510zM123 0q6 85 9 148t3 102v1239h248v-518q57 65 119 94t143 29q181 0 295.5 -154t114.5 -403q0 -248 -116.5 -402.5t-301.5 -154.5
q-86 0 -155.5 32t-135.5 103l-27 -115h-196z" />
    <glyph glyph-name="c" unicode="c" horiz-adv-x="995" 
d="M745 356l197 -104q-55 -134 -162.5 -203t-259.5 -69q-227 0 -345 141t-118 416q0 258 124 406.5t339 148.5q151 0 257.5 -72t154.5 -207l-213 -92q-29 84 -73 123t-109 39q-116 0 -171 -87.5t-55 -273.5q0 -166 51.5 -246.5t157.5 -80.5q76 0 131 39t94 122z" />
    <glyph glyph-name="d" unicode="d" horiz-adv-x="1118" 
d="M735 285v510q-53 48 -97.5 69t-92.5 21q-106 0 -166 -92t-60 -256q0 -165 60 -254.5t168 -89.5q49 0 93 21t95 71zM772 115q-57 -69 -127.5 -102t-161.5 -33q-185 0 -302.5 155t-117.5 402q0 249 114.5 403t295.5 154q81 0 143 -29t119 -94v518h248v-1239q0 -39 3 -102
t9 -148h-196z" />
    <glyph glyph-name="e" unicode="e" horiz-adv-x="1014" 
d="M313 676h392q0 107 -52 167t-143 60q-86 0 -137.5 -59.5t-59.5 -167.5zM942 211q-61 -114 -170 -172.5t-258 -58.5q-215 0 -335 146t-120 409t119.5 411t331.5 148q211 0 327.5 -143t116.5 -402q0 -9 -1 -27.5t-1 -27.5l-643 -1q2 -152 59 -228.5t169 -76.5
q70 0 121.5 32.5t97.5 105.5z" />
    <glyph glyph-name="f" unicode="f" horiz-adv-x="616" 
d="M152 0v866h-150v207h150v166q0 130 80 200t229 70q35 0 73.5 -3t77.5 -9v-213q-15 2 -31.5 3t-48.5 1q-73 0 -101 -27t-28 -102v-86h203v-207h-196v-866h-258z" />
    <glyph glyph-name="g" unicode="g" horiz-adv-x="1020" 
d="M383 23q-58 -28 -83.5 -54.5t-25.5 -58.5q0 -54 57 -86.5t152 -32.5q128 0 203.5 36.5t75.5 96.5q0 42 -33.5 62.5t-109.5 23.5zM328 721q0 -79 46 -123.5t128 -44.5q78 0 126 47t48 125q0 79 -50 127.5t-130 48.5q-76 0 -122 -49.5t-46 -130.5zM219 76q-78 38 -109.5 75
t-31.5 89q0 58 41.5 110.5t118.5 91.5q-74 45 -112 116t-38 165q0 166 113 269.5t295 103.5q76 0 141 -22t127 -68q39 51 88 76.5t109 25.5q15 0 22 -0.5t14 -1.5v-188h-5q-32 4 -44 4q-29 0 -51 -6.5t-43 -20.5q25 -35 37 -83t12 -110q0 -157 -108 -249.5t-293 -92.5
q-34 0 -63 3.5t-54 9.5q-34 -14 -52 -32t-18 -40q1 -61 206 -74q50 -4 77 -6q229 -17 311 -77.5t82 -200.5q0 -161 -129.5 -246.5t-374.5 -85.5q-223 0 -338.5 68t-115.5 200q0 72 43.5 118.5t142.5 78.5z" />
    <glyph glyph-name="h" unicode="h" horiz-adv-x="1130" 
d="M135 0v1489h252v-535q83 73 158.5 106.5t156.5 33.5q149 0 224 -87.5t75 -261.5v-745h-251v696q0 103 -29.5 147t-95.5 44q-56 0 -114 -29t-124 -90v-768h-252z" />
    <glyph glyph-name="i" unicode="i" horiz-adv-x="524" 
d="M135 1249v240h254v-240h-254zM135 0v1073h254v-1073h-254z" />
    <glyph glyph-name="j" unicode="j" horiz-adv-x="551" 
d="M160 1249v240h254v-240h-254zM-20 -371v213q19 -3 34 -4.5t23 -1.5q71 0 97 28.5t26 112.5v1096h254v-1132q0 -170 -69.5 -250t-215.5 -80q-40 0 -76.5 4.5t-72.5 13.5z" />
    <glyph glyph-name="k" unicode="k" horiz-adv-x="1026" 
d="M135 0v1489h250v-850l330 434h280l-317 -381l344 -692h-277l-237 492l-123 -146v-346h-250z" />
    <glyph glyph-name="l" unicode="l" horiz-adv-x="524" 
d="M135 0v1489h254v-1489h-254z" />
    <glyph glyph-name="m" unicode="m" horiz-adv-x="1700" 
d="M135 0v1073h234v-125q64 74 139 110t164 36q95 0 159.5 -39t104.5 -121q84 84 166 122t180 38q133 0 210 -73t77 -200v-821h-254v739q0 70 -30.5 108t-86.5 38q-59 0 -115.5 -28t-109.5 -83v-774h-248v711q0 90 -27 132t-84 42q-62 0 -121.5 -29.5t-105.5 -83.5v-772
h-252z" />
    <glyph glyph-name="n" unicode="n" horiz-adv-x="1128" 
d="M133 0v1073h234v-127q100 81 175.5 114.5t155.5 33.5q150 0 225.5 -88t75.5 -261v-745h-254v696q0 104 -28 147.5t-94 43.5q-56 0 -114.5 -29t-123.5 -90v-768h-252z" />
    <glyph glyph-name="o" unicode="o" horiz-adv-x="1034" 
d="M313 537q0 -171 51 -255.5t152 -84.5q102 0 152.5 84t50.5 256q0 171 -50 254t-153 83q-102 0 -152.5 -84t-50.5 -253zM57 537q0 262 121.5 409.5t337.5 147.5t337.5 -147.5t121.5 -409.5t-122 -409.5t-337 -147.5t-337 148t-122 409z" />
    <glyph glyph-name="p" unicode="p" horiz-adv-x="1118" 
d="M383 276q53 -47 98.5 -68.5t93.5 -21.5q106 0 166 93t60 258q0 164 -59.5 254t-168.5 90q-48 0 -93.5 -22.5t-96.5 -72.5v-510zM383 102v-491h-248v1462h184l27 -117q69 74 136.5 106t154.5 32q185 0 301.5 -155t116.5 -402q0 -250 -114.5 -403.5t-295.5 -153.5
q-81 0 -143 29t-119 93z" />
    <glyph glyph-name="q" unicode="q" horiz-adv-x="1118" 
d="M735 276v510q-52 51 -96 73t-92 22q-108 0 -168 -90t-60 -254q0 -165 60 -258t166 -93q48 0 92.5 21t97.5 69zM735 102q-57 -64 -119 -93t-143 -29q-181 0 -295.5 153.5t-114.5 403.5q0 247 117.5 402t302.5 155q87 0 153 -31.5t136 -106.5l27 117h196q-6 -89 -9 -152
t-3 -100v-1210h-248v491z" />
    <glyph glyph-name="r" unicode="r" horiz-adv-x="705" 
d="M135 0v1073h242v-178q52 98 119 147.5t147 49.5q14 0 20.5 -0.5t12.5 -2.5v-264h-12q-85 0 -156 -44t-115 -124v-657h-258z" />
    <glyph glyph-name="s" unicode="s" horiz-adv-x="901" 
d="M45 195l172 135q61 -79 121 -116.5t125 -37.5q69 0 109 32t40 87q0 81 -169 143q-18 7 -27 11q-201 76 -268.5 147t-67.5 184q0 138 102.5 226t266.5 88q110 0 198.5 -40t163.5 -124l-160 -139q-52 55 -103.5 81.5t-105.5 26.5q-64 0 -100.5 -28.5t-36.5 -77.5
q0 -60 169 -123q45 -17 71 -27q171 -66 233 -139.5t62 -196.5q0 -149 -102.5 -239.5t-272.5 -90.5q-133 0 -234 52.5t-186 165.5z" />
    <glyph glyph-name="t" unicode="t" horiz-adv-x="664" 
d="M420 322q0 -78 22 -101.5t82 -23.5q24 0 51 2t54 6v-209q-42 -9 -96.5 -14t-114.5 -5q-131 0 -191.5 60.5t-60.5 191.5v635h-139v209h139v344h254v-344h209v-209h-209v-542z" />
    <glyph glyph-name="u" unicode="u" horiz-adv-x="1128" 
d="M762 125q-97 -79 -174.5 -112t-159.5 -33q-149 0 -224 86.5t-75 259.5v747h254v-696q0 -104 28.5 -148.5t94.5 -44.5q55 0 113 29.5t124 91.5v768h252v-1073h-233v125z" />
    <glyph glyph-name="v" unicode="v" horiz-adv-x="979" 
d="M362 0l-354 1073h252l176 -579q8 -23 20 -75.5t29 -141.5q10 88 47 203q3 9 5 14l176 579h252l-353 -1073h-250z" />
    <glyph glyph-name="w" unicode="w" horiz-adv-x="1518" 
d="M346 0l-315 1073h248l143 -522q8 -33 18 -93.5t19 -133.5q2 42 9.5 84.5t25.5 105.5l147 559h233l142 -522q10 -42 20.5 -101t18.5 -126q5 51 13 98t19 92l148 559h250l-314 -1073h-225l-133 465q-23 79 -36 138t-19 110q-14 -82 -26 -143.5t-21 -93.5l-142 -476h-223z
" />
    <glyph glyph-name="x" unicode="x" horiz-adv-x="924" 
d="M10 0l322 563l-299 510h276l158 -311l164 311h250l-291 -512l319 -561h-276l-176 371l-193 -371h-254z" />
    <glyph glyph-name="y" unicode="y" horiz-adv-x="979" 
d="M385 29l-377 1044h254l236 -704l219 704h248l-336 -1014q-97 -289 -185 -368.5t-249 -79.5q-29 0 -57 4t-56 12v211q26 -6 52 -9t52 -3q84 0 130.5 47t68.5 156z" />
    <glyph glyph-name="z" unicode="z" horiz-adv-x="920" 
d="M41 0v182l510 688h-467v203h782v-180l-508 -680h508v-213h-825z" />
    <glyph glyph-name="braceleft" unicode="{" 
d="M874 1477v-179q-8 0 -24 1t-23 1q-109 0 -147.5 -41.5t-38.5 -173.5v-241q0 -155 -44 -220.5t-159 -93.5q114 -27 158.5 -92.5t44.5 -220.5v-240q0 -132 39.5 -174.5t148.5 -42.5q7 0 22 1t23 1v-176h-63q-102 0 -165.5 12t-106.5 37q-57 34 -80 96t-23 203v248
q0 144 -52.5 203t-178.5 59q-7 0 -21.5 -1t-21.5 -1v179q7 0 21.5 -1.5t21.5 -1.5q126 0 178.5 59t52.5 202v247q0 145 23 206.5t80 94.5q44 27 109 38.5t181 11.5h45z" />
    <glyph glyph-name="bar" unicode="|" 
d="M424 1565h178v-2048h-178v2048z" />
    <glyph glyph-name="braceright" unicode="}" 
d="M152 1477h45q115 0 179.5 -11.5t108.5 -38.5q57 -33 80 -95t23 -206v-247q0 -144 52 -202.5t179 -58.5q6 0 21 1.5t22 1.5v-179q-7 0 -21.5 1t-21.5 1q-126 0 -178.5 -59t-52.5 -203v-248q0 -143 -23 -204t-80 -95q-43 -26 -108 -37.5t-180 -11.5h-45v176q8 0 23 -1
t22 -1q109 0 147.5 42t38.5 175v240q0 153 45 219t160 94q-115 28 -160 93.5t-45 220.5v241q0 132 -38 173.5t-146 41.5q-7 0 -23 -1t-24 -1v179z" />
    <glyph glyph-name="asciitilde" unicode="~" horiz-adv-x="1706" 
d="M1530 784v-184q-103 -71 -197.5 -106t-183.5 -35q-44 0 -92.5 8.5t-98.5 26.5q-25 8 -76 26q-212 74 -319 74q-82 0 -174 -38t-211 -122v187q106 72 202 107.5t185 35.5q62 0 125.5 -12t168.5 -48q13 -4 42 -15q164 -58 250 -58q85 0 177 37t202 116z" />
    <glyph glyph-name="Euro" horiz-adv-x="1241" 
d="M1198 354q-57 -190 -186.5 -284.5t-335.5 -94.5q-225 0 -357.5 143.5t-164.5 420.5h-154l31 133h112q0 9 -1 27q-3 42 -3 57q0 13 3 56q1 15 1 24h-143l31 133h125q33 261 168 399.5t356 138.5q196 0 320.5 -97t168.5 -284l-241 -63q-28 105 -90 161t-152 56
q-107 0 -172.5 -77t-91.5 -234h516l-37 -133h-493q-2 -14 -2 -30.5v-53.5v-19q0 -14 0.5 -29.5t1.5 -31.5h444l-35 -133h-397q24 -166 95 -250t185 -84q92 0 158 57t98 164z" />
    <glyph glyph-name="Euro" unicode="&#x20ac;" horiz-adv-x="1241" 
d="M1198 354q-57 -190 -186.5 -284.5t-335.5 -94.5q-225 0 -357.5 143.5t-164.5 420.5h-154l31 133h112q0 9 -1 27q-3 42 -3 57q0 13 3 56q1 15 1 24h-143l31 133h125q33 261 168 399.5t356 138.5q196 0 320.5 -97t168.5 -284l-241 -63q-28 105 -90 161t-152 56
q-107 0 -172.5 -77t-91.5 -234h516l-37 -133h-493q-2 -14 -2 -30.5v-53.5v-19q0 -14 0.5 -29.5t1.5 -31.5h444l-35 -133h-397q24 -166 95 -250t185 -84q92 0 158 57t98 164z" />
    <glyph glyph-name="nonbreakingspace" unicode="&#xa0;" horiz-adv-x="1241" 
 />
    <glyph glyph-name="exclamdown" unicode="&#xa1;" horiz-adv-x="664" 
d="M461 1489v-295h-275v295h275zM420 987l53 -987h-297l53 987h191z" />
    <glyph glyph-name="cent" unicode="&#xa2;" horiz-adv-x="1241" 
d="M469 287l217 610q-20 4 -37.5 6t-30.5 2q-95 0 -150.5 -90.5t-55.5 -247.5q0 -104 13.5 -171t43.5 -109zM854 375l203 -107q-64 -134 -175.5 -201t-271.5 -67q-44 0 -68.5 1.5t-45.5 4.5l-86 -250h-136l107 303q-111 75 -163 195t-52 301q0 261 124.5 409t342.5 148
q33 0 63.5 -3.5t60.5 -10.5l74 215h136l-95 -266q59 -43 101.5 -95.5t70.5 -117.5l-217 -92q-9 24 -19.5 45.5t-23.5 39.5l-218 -614q15 -3 28.5 -4.5t26.5 -1.5q73 0 129.5 40.5t103.5 127.5z" />
    <glyph glyph-name="sterling" unicode="&#xa3;" horiz-adv-x="1241" 
d="M76 -23v256q108 24 159.5 93.5t51.5 191.5q0 17 -5 74q-2 31 -4 49h-212v190h198q-17 84 -26 146t-9 106q0 192 122 308t323 116q219 0 339 -115t120 -325v-6h-252q0 104 -51 162.5t-140 58.5q-93 0 -144.5 -52t-51.5 -147q0 -22 1.5 -45t6.5 -62l20 -145h285v-190h-262
q1 -13 1.5 -27.5t0.5 -42.5q0 -74 -11.5 -137.5t-35.5 -120.5q61 -46 122 -70t117 -24q90 0 134.5 49t44.5 150v28h249q1 -8 1.5 -19t0.5 -32q0 -199 -100.5 -308.5t-284.5 -109.5q-111 0 -211 34.5t-188 103.5q-52 -62 -127 -95t-182 -43z" />
    <glyph glyph-name="currency" unicode="&#xa4;" horiz-adv-x="1241" 
d="M1198 354q-57 -190 -186.5 -284.5t-335.5 -94.5q-225 0 -357.5 143.5t-164.5 420.5h-154l31 133h112q0 9 -1 27q-3 42 -3 57q0 13 3 56q1 15 1 24h-143l31 133h125q33 261 168 399.5t356 138.5q196 0 320.5 -97t168.5 -284l-241 -63q-28 105 -90 161t-152 56
q-107 0 -172.5 -77t-91.5 -234h516l-37 -133h-493q-2 -14 -2 -30.5v-53.5v-19q0 -14 0.5 -29.5t1.5 -31.5h444l-35 -133h-397q24 -166 95 -250t185 -84q92 0 158 57t98 164z" />
    <glyph glyph-name="yen" unicode="&#xa5;" horiz-adv-x="1241" 
d="M1171 1485l-215 -455h228v-131h-289l-82 -166h371v-133h-439v-600h-249v600h-441v133h375l-80 166h-295v131h232l-217 455h276l287 -641l282 641h256z" />
    <glyph glyph-name="brokenbar" unicode="&#xa6;" 
d="M424 408h178v-758h-178v758zM424 1432h178v-758h-178v758z" />
    <glyph glyph-name="section" unicode="&#xa7;" 
d="M295 817q0 -35 29 -79.5t110 -127.5q95 -96 137 -123.5t80 -27.5q31 0 52.5 23t21.5 57q0 32 -25 71.5t-116 134.5q-84 89 -129 121.5t-80 32.5q-34 0 -57 -23.5t-23 -58.5zM174 -14l141 106q53 -62 95.5 -90.5t83.5 -28.5q50 0 80 29.5t30 77.5q0 38 -21 74.5
t-100 117.5l-204 213q-102 106 -138.5 172.5t-36.5 135.5q0 95 59.5 160t162.5 83q-55 61 -79 113t-24 106q0 111 80 181.5t205 70.5q97 0 177.5 -41t143.5 -123l-141 -104q-49 56 -88 81.5t-76 25.5q-43 0 -72.5 -28t-29.5 -69q0 -30 17 -59.5t81 -93.5l215 -215
q96 -94 138 -171t42 -155q0 -99 -54 -157.5t-165 -78.5q55 -55 81 -115t26 -128q0 -126 -80 -199.5t-215 -73.5q-96 0 -182 47t-152 136z" />
    <glyph glyph-name="dieresis" unicode="&#xa8;" 
d="M573 1247v244h226v-244h-226zM225 1247v244h226v-244h-226z" />
    <glyph glyph-name="copyright" unicode="&#xa9;" horiz-adv-x="1706" 
d="M1206 903h-166q-10 74 -60 114t-130 40q-99 0 -155 -86.5t-56 -239.5q0 -152 57.5 -234.5t163.5 -82.5q80 0 129 43.5t60 124.5h165q-7 -135 -106.5 -217t-253.5 -82q-183 0 -290 119t-107 323q0 208 109.5 331.5t291.5 123.5q147 0 243 -77t105 -200zM854 1362
q-130 0 -243 -46.5t-201 -135.5q-90 -92 -138.5 -208t-48.5 -241q0 -126 48 -240t139 -204q90 -91 204.5 -139t239.5 -48t240 48.5t209 140.5q89 88 135.5 200.5t46.5 241.5t-47 243.5t-135 203.5q-91 90 -205 137t-244 47zM852 1470q152 0 286 -55t240 -162
q105 -105 160 -238.5t55 -283.5q0 -153 -54.5 -286t-158.5 -234q-108 -107 -244.5 -164t-283.5 -57q-146 0 -280 56.5t-240 162.5q-107 106 -163 240.5t-56 281.5q0 145 57 280.5t164 243.5q105 107 235.5 161t282.5 54z" />
    <glyph glyph-name="ordfeminine" unicode="&#xaa;" horiz-adv-x="786" 
d="M498 1104q-137 -19 -199.5 -57t-62.5 -103q0 -38 22 -59t64 -21q46 0 90 19.5t86 58.5v162zM520 737l-18 66q-56 -37 -115.5 -55.5t-124.5 -18.5q-101 0 -158 53.5t-57 147.5q0 123 110 193.5t347 99.5v57q0 42 -29 64t-84 22q-56 0 -101 -22t-77 -64l-129 76
q50 73 128 110t181 37q140 0 217.5 -59t77.5 -164v-440q0 -21 3 -46.5t9 -56.5h-180z" />
    <glyph glyph-name="guillemotleft" unicode="&#xab;" horiz-adv-x="1122" 
d="M774 209l-246 326l246 327h227l-245 -327l245 -326h-227zM371 209l-246 326l246 327h227l-246 -327l246 -326h-227z" />
    <glyph glyph-name="logicalnot" unicode="&#xac;" horiz-adv-x="1706" 
d="M254 862h1198v-502h-166v336h-1032v166z" />
    <glyph glyph-name="sfthyphen" unicode="&#xad;" horiz-adv-x="676" 
d="M102 426v221h459v-221h-459z" />
    <glyph glyph-name="registered" unicode="&#xae;" horiz-adv-x="1706" 
d="M729 1047v-261h117q100 0 146 30.5t46 96.5q0 69 -48 101.5t-152 32.5h-109zM551 1159h319q173 0 262 -57t89 -168q0 -91 -48 -150.5t-137 -78.5l185 -375h-199l-164 346h-129v-346h-178v829zM854 1362q-129 0 -240 -45.5t-200 -134.5q-92 -94 -141.5 -210t-49.5 -241
t47 -238.5t136 -203.5q90 -91 204 -140t234 -49q130 0 246.5 47t209.5 138q89 86 137 198.5t48 237.5q0 133 -45.5 247.5t-134.5 205.5q-93 92 -207.5 140t-243.5 48zM852 1470q153 0 288.5 -56t241.5 -165q103 -104 157 -236.5t54 -281.5q0 -153 -55.5 -287t-161.5 -237
q-108 -105 -243 -161t-281 -56q-147 0 -282.5 57.5t-241.5 165.5q-105 106 -160 239t-55 279q0 147 57.5 284t165.5 245q104 104 234.5 157t281.5 53z" />
    <glyph glyph-name="macron" unicode="&#xaf;" 
d="M225 1292v154h574v-154h-574z" />
    <glyph glyph-name="degree" unicode="&#xb0;" horiz-adv-x="674" 
d="M338 1350q-77 0 -131.5 -54t-54.5 -131q0 -76 54.5 -131t131.5 -55t130.5 54.5t53.5 131.5t-53.5 131t-130.5 54zM338 1460q121 0 208 -87t87 -210q0 -121 -87 -208t-210 -87t-208 85.5t-85 209.5q0 125 86 211t209 86z" />
    <glyph glyph-name="plusminus" unicode="&#xb1;" horiz-adv-x="1706" 
d="M254 182h1198v-168h-1198v168zM768 1206h170v-334h514v-165h-514v-334h-170v334h-514v165h514v334z" />
    <glyph glyph-name="twosuperior" unicode="&#xb2;" horiz-adv-x="819" 
d="M72 594v162q36 53 93 105t169 130q142 98 179.5 147t37.5 105q0 55 -38 87t-103 32q-68 0 -112.5 -37.5t-54.5 -101.5l-165 28q23 117 112.5 182.5t225.5 65.5q140 0 226.5 -73.5t86.5 -190.5q0 -84 -53.5 -155.5t-189.5 -161.5q-26 -18 -73 -49q-139 -92 -163 -134h473
v-141h-651z" />
    <glyph glyph-name="threesuperior" unicode="&#xb3;" horiz-adv-x="819" 
d="M31 756l139 78q42 -60 91.5 -88.5t109.5 -28.5q74 0 121 39t47 100q0 73 -64.5 109t-193.5 36h-33v133q7 0 16 -0.5t25 -0.5q108 0 165.5 32.5t57.5 94.5q0 48 -38.5 78t-102.5 30q-56 0 -102 -22t-81 -66l-118 86q50 64 130 98.5t179 34.5q138 0 221.5 -62.5
t83.5 -164.5q0 -69 -36 -118t-107 -79q84 -23 129 -81.5t45 -145.5q0 -125 -90 -196.5t-246 -71.5q-120 0 -207 44t-141 132z" />
    <glyph glyph-name="acute" unicode="&#xb4;" 
d="M805 1556l-313 -368h-142l197 368h258z" />
    <glyph glyph-name="mu" unicode="&#xb5;" horiz-adv-x="1208" 
d="M205 1081h229l-125 -635q-6 -29 -9 -55t-3 -49q0 -96 46.5 -146.5t135.5 -50.5q122 0 193.5 88.5t111.5 292.5l109 555h225l-145 -739q-10 -49 -14.5 -81.5t-4.5 -51.5q0 -36 15.5 -51t52.5 -15q13 0 20.5 0.5t13.5 1.5l-32 -159q-32 -9 -68.5 -13t-81.5 -4
q-74 0 -111.5 31.5t-37.5 93.5v15q-41 -67 -108 -104.5t-146 -37.5q-81 0 -137.5 26t-97.5 83l-99 -506h-229z" />
    <glyph glyph-name="paragraph" unicode="&#xb6;" 
d="M969 1479v-99h-117v-1380h-129v1380h-168v-1380h-131v784q-168 6 -268.5 101t-100.5 245q0 158 107 253.5t284 95.5h523z" />
    <glyph glyph-name="glyph122" unicode="&#xb7;" horiz-adv-x="621" 
d="M143 741q0 71 49 119.5t119 48.5t118 -48.5t48 -119.5q0 -69 -48.5 -117.5t-117.5 -48.5q-70 0 -119 48.5t-49 117.5z" />
    <glyph glyph-name="cedilla" unicode="&#xb8;" 
d="M283 -438v129q80 -21 145 -32t111 -11q52 0 76 17.5t24 55.5t-28 54t-93 16q-23 0 -35 -0.5t-22 -1.5v211h102v-90h15q117 0 176 -48t59 -143q0 -100 -66 -150t-198 -50q-51 0 -119.5 11t-146.5 32z" />
    <glyph glyph-name="onesuperior" unicode="&#xb9;" horiz-adv-x="819" 
d="M180 594v125h152v612q-43 0 -85.5 -2.5t-84.5 -7.5v104q72 14 128.5 32t100.5 42h113v-780h153v-125h-477z" />
    <glyph glyph-name="ordmasculine" unicode="&#xba;" horiz-adv-x="776" 
d="M236 1112q0 -118 38 -178t113 -60q76 0 114 59.5t38 178.5q0 120 -37.5 179t-114.5 59q-76 0 -113.5 -59.5t-37.5 -178.5zM43 1112q0 185 91 288t253 103q163 0 253.5 -103t90.5 -288q0 -183 -91.5 -286t-252.5 -103q-160 0 -252 103.5t-92 285.5z" />
    <glyph glyph-name="guillemotright" unicode="&#xbb;" horiz-adv-x="1122" 
d="M528 209l246 326l-246 327h228l245 -327l-245 -326h-228zM125 209l246 326l-246 327h227l246 -327l-246 -326h-227z" />
    <glyph glyph-name="onequarter" unicode="&#xbc;" horiz-adv-x="1907" 
d="M1278 309h293v363zM1569 -6v196h-418v150l399 494h174v-523h134v-121h-134v-196h-155zM440 -25l883 1532h141l-880 -1532h-144zM170 653v117h145v571q-33 0 -69.5 -1.5t-91.5 -6.5v97q63 10 118 27t101 40h106v-727h146v-117h-455z" />
    <glyph glyph-name="onehalf" unicode="&#xbd;" horiz-adv-x="1907" 
d="M1192 0v150q34 49 86.5 96t165.5 125q135 92 170 137.5t35 97.5q0 51 -36 81t-97 30q-65 0 -107.5 -35.5t-50.5 -93.5l-160 26q23 108 109 169t215 61q133 0 216 -68.5t83 -177.5q0 -77 -52 -144t-182 -153q-22 -14 -63 -40q-139 -89 -160 -130h451v-131h-623zM440 -25
l883 1532h141l-880 -1532h-144zM170 653v117h145v571q-33 0 -69.5 -1.5t-91.5 -6.5v97q63 10 118 27t101 40h106v-727h146v-117h-455z" />
    <glyph glyph-name="threequarters" unicode="&#xbe;" horiz-adv-x="1907" 
d="M1278 309h293v363zM1569 -6v196h-418v150l399 494h174v-523h134v-121h-134v-196h-155zM440 -25l883 1532h141l-880 -1532h-144zM29 803l133 74q40 -56 87 -82.5t105 -26.5q70 0 115 36.5t45 92.5q0 69 -60 102t-186 33h-30v125h38q103 0 158 30.5t55 86.5q0 46 -36.5 74
t-98.5 28q-52 0 -96 -21t-78 -63l-114 82q48 60 124.5 91.5t171.5 31.5q133 0 212 -57.5t79 -153.5q0 -64 -34.5 -110t-102.5 -74q80 -20 123 -75t43 -136q0 -117 -85.5 -184.5t-234.5 -67.5q-115 0 -199 41t-134 123z" />
    <glyph glyph-name="questiondown" unicode="&#xbf;" horiz-adv-x="897" 
d="M596 983q1 -15 1.5 -31t0.5 -47q0 -102 -23.5 -173.5t-80.5 -145.5q-15 -19 -42 -53q-120 -151 -120 -222q0 -55 35.5 -90t91.5 -35q65 0 106 44t66 141l233 -72q-34 -153 -142.5 -238.5t-268.5 -85.5q-178 0 -282.5 87.5t-104.5 234.5q0 140 144 309q38 44 56 68
q54 71 74 129.5t20 132.5q0 19 -0.5 29t-0.5 18h237zM621 1489v-295h-285v295h285z" />
    <glyph glyph-name="Agrave" unicode="&#xc0;" horiz-adv-x="1264" 
d="M436 563h379l-190 666zM8 0l449 1489h350l448 -1489h-280l-92 326h-514l-95 -326h-266zM340 1972h258l197 -368h-142z" />
    <glyph glyph-name="Aacute" unicode="&#xc1;" horiz-adv-x="1264" 
d="M436 563h379l-190 666zM8 0l449 1489h350l448 -1489h-280l-92 326h-514l-95 -326h-266zM926 1972l-313 -368h-142l197 368h258z" />
    <glyph glyph-name="Acircumflex" unicode="&#xc2;" horiz-adv-x="1264" 
d="M436 563h379l-190 666zM8 0l449 1489h350l448 -1489h-280l-92 326h-514l-95 -326h-266zM318 1604l196 368h238l196 -368h-141l-174 217l-176 -217h-139z" />
    <glyph glyph-name="Atilde" unicode="&#xc3;" horiz-adv-x="1264" 
d="M436 563h379l-190 666zM8 0l449 1489h350l448 -1489h-280l-92 326h-514l-95 -326h-266zM950 1925q-26 -124 -77 -183.5t-131 -59.5q-22 0 -40 2.5t-34 7.5l-89 27q-19 5 -35 7.5t-30 2.5q-34 0 -55 -18.5t-33 -59.5h-110q24 121 74 178t130 57q21 0 42.5 -3.5t44.5 -10.5
l92 -24q12 -5 25.5 -7t29.5 -2q32 0 53.5 21.5t32.5 64.5h110z" />
    <glyph glyph-name="Adieresis" unicode="&#xc4;" horiz-adv-x="1264" 
d="M436 563h379l-190 666zM8 0l449 1489h350l448 -1489h-280l-92 326h-514l-95 -326h-266zM694 1663v244h226v-244h-226zM346 1663v244h226v-244h-226z" />
    <glyph glyph-name="Aring" unicode="&#xc5;" horiz-adv-x="1264" 
d="M510 1706q0 -52 34.5 -86.5t86.5 -34.5t87.5 35t35.5 86t-36.5 87t-86.5 36q-52 0 -86.5 -35t-34.5 -88zM8 0l445 1460h86q-83 29 -128.5 93.5t-45.5 152.5q0 111 77 188.5t189 77.5q111 0 188.5 -77.5t77.5 -188.5q0 -90 -47 -155t-131 -91h92l444 -1460h-280l-92 326
h-514l-95 -326h-266zM436 563h379l-190 666z" />
    <glyph glyph-name="AE" unicode="&#xc6;" horiz-adv-x="1821" 
d="M471 563h348v684h-59zM-61 0l661 1489h1126v-242h-641v-352h463v-238h-463v-403h670v-254h-936v326h-450l-140 -326h-290z" />
    <glyph glyph-name="Ccedilla" unicode="&#xc7;" horiz-adv-x="1266" 
d="M952 444l258 -71q-55 -193 -196 -295.5t-352 -102.5q-290 0 -438 193t-148 569q0 369 157 569.5t445 200.5q201 0 330 -100t172 -289l-258 -63q-28 107 -93.5 162t-166.5 55q-152 0 -227 -133.5t-75 -403.5q0 -262 75 -387t233 -125q103 0 179 59.5t105 161.5zM422 -438
v129q80 -21 145 -32t111 -11q52 0 76 17.5t24 55.5t-28 54t-93 16q-23 0 -35 -0.5t-22 -1.5v211h102v-90h15q117 0 176 -48t59 -143q0 -100 -66 -150t-198 -50q-51 0 -119.5 11t-146.5 32z" />
    <glyph glyph-name="Egrave" unicode="&#xc8;" horiz-adv-x="1233" 
d="M174 0v1489h967v-242h-688v-352h501v-238h-501v-403h718v-254h-997zM379 1972h258l197 -368h-142z" />
    <glyph glyph-name="Eacute" unicode="&#xc9;" horiz-adv-x="1233" 
d="M174 0v1489h967v-242h-688v-352h501v-238h-501v-403h718v-254h-997zM965 1972l-313 -368h-142l197 368h258z" />
    <glyph glyph-name="Ecircumflex" unicode="&#xca;" horiz-adv-x="1233" 
d="M174 0v1489h967v-242h-688v-352h501v-238h-501v-403h718v-254h-997zM357 1604l196 368h238l196 -368h-141l-174 217l-176 -217h-139z" />
    <glyph glyph-name="Edieresis" unicode="&#xcb;" horiz-adv-x="1233" 
d="M174 0v1489h967v-242h-688v-352h501v-238h-501v-403h718v-254h-997zM733 1663v244h226v-244h-226zM385 1663v244h226v-244h-226z" />
    <glyph glyph-name="Igrave" unicode="&#xcc;" horiz-adv-x="672" 
d="M195 0v1489h282v-1489h-282zM43 1972h258l197 -368h-142z" />
    <glyph glyph-name="Iacute" unicode="&#xcd;" horiz-adv-x="672" 
d="M195 0v1489h282v-1489h-282zM629 1972l-313 -368h-142l197 368h258z" />
    <glyph glyph-name="Icircumflex" unicode="&#xce;" horiz-adv-x="672" 
d="M195 0v1489h282v-1489h-282zM21 1604l196 368h238l196 -368h-141l-174 217l-176 -217h-139z" />
    <glyph glyph-name="Idieresis" unicode="&#xcf;" horiz-adv-x="672" 
d="M195 0v1489h282v-1489h-282zM397 1663v244h226v-244h-226zM49 1663v244h226v-244h-226z" />
    <glyph glyph-name="Eth" unicode="&#xd0;" horiz-adv-x="1415" 
d="M459 246h155q230 0 332.5 118.5t102.5 385.5q0 252 -107 371.5t-332 119.5h-151v-393h278v-152h-278v-450zM180 0v696h-170v152h170v641h455q345 0 520.5 -187t175.5 -552q0 -374 -176.5 -562t-529.5 -188h-445z" />
    <glyph glyph-name="Ntilde" unicode="&#xd1;" horiz-adv-x="1460" 
d="M162 0v1489h299l428 -748q49 -87 91 -176t77 -180q-11 66 -16 141.5t-5 161.5v801h260v-1489h-260l-465 768q-38 65 -80.5 156t-87.5 202q10 -61 14.5 -134t4.5 -169v-823h-260zM1048 1925q-26 -124 -77 -183.5t-131 -59.5q-22 0 -40 2.5t-34 7.5l-89 27q-19 5 -35 7.5
t-30 2.5q-34 0 -55 -18.5t-33 -59.5h-110q24 121 74 178t130 57q21 0 42.5 -3.5t44.5 -10.5l92 -24q12 -5 25.5 -7t29.5 -2q32 0 53.5 21.5t32.5 64.5h110z" />
    <glyph glyph-name="Ograve" unicode="&#xd2;" horiz-adv-x="1389" 
d="M360 741q0 -253 85 -383.5t249 -130.5t249 130.5t85 383.5q0 255 -85 387t-249 132t-249 -132t-85 -387zM76 741q0 361 164 563.5t454 202.5t454.5 -202.5t164.5 -563.5q0 -359 -165 -562.5t-454 -203.5q-288 0 -453 203.5t-165 562.5zM401 1972h258l197 -368h-142z" />
    <glyph glyph-name="Oacute" unicode="&#xd3;" horiz-adv-x="1389" 
d="M360 741q0 -253 85 -383.5t249 -130.5t249 130.5t85 383.5q0 255 -85 387t-249 132t-249 -132t-85 -387zM76 741q0 361 164 563.5t454 202.5t454.5 -202.5t164.5 -563.5q0 -359 -165 -562.5t-454 -203.5q-288 0 -453 203.5t-165 562.5zM987 1972l-313 -368h-142l197 368
h258z" />
    <glyph glyph-name="Ocircumflex" unicode="&#xd4;" horiz-adv-x="1389" 
d="M360 741q0 -253 85 -383.5t249 -130.5t249 130.5t85 383.5q0 255 -85 387t-249 132t-249 -132t-85 -387zM76 741q0 361 164 563.5t454 202.5t454.5 -202.5t164.5 -563.5q0 -359 -165 -562.5t-454 -203.5q-288 0 -453 203.5t-165 562.5zM379 1604l196 368h238l196 -368
h-141l-174 217l-176 -217h-139z" />
    <glyph glyph-name="Otilde" unicode="&#xd5;" horiz-adv-x="1389" 
d="M360 741q0 -253 85 -383.5t249 -130.5t249 130.5t85 383.5q0 255 -85 387t-249 132t-249 -132t-85 -387zM76 741q0 361 164 563.5t454 202.5t454.5 -202.5t164.5 -563.5q0 -359 -165 -562.5t-454 -203.5q-288 0 -453 203.5t-165 562.5zM1011 1925q-26 -124 -77 -183.5
t-131 -59.5q-22 0 -40 2.5t-34 7.5l-89 27q-19 5 -35 7.5t-30 2.5q-34 0 -55 -18.5t-33 -59.5h-110q24 121 74 178t130 57q21 0 42.5 -3.5t44.5 -10.5l92 -24q12 -5 25.5 -7t29.5 -2q32 0 53.5 21.5t32.5 64.5h110z" />
    <glyph glyph-name="Odieresis" unicode="&#xd6;" horiz-adv-x="1389" 
d="M360 741q0 -253 85 -383.5t249 -130.5t249 130.5t85 383.5q0 255 -85 387t-249 132t-249 -132t-85 -387zM76 741q0 361 164 563.5t454 202.5t454.5 -202.5t164.5 -563.5q0 -359 -165 -562.5t-454 -203.5q-288 0 -453 203.5t-165 562.5zM755 1663v244h226v-244h-226z
M407 1663v244h226v-244h-226z" />
    <glyph glyph-name="multiply" unicode="&#xd7;" horiz-adv-x="1706" 
d="M403 1188l459 -459l461 459l117 -117l-459 -461l459 -458l-117 -119l-461 461l-459 -461l-116 119l458 458l-458 461z" />
    <glyph glyph-name="Oslash" unicode="&#xd8;" horiz-adv-x="1389" 
d="M500 295q40 -34 90 -52t106 -18q158 0 245 129.5t87 366.5q0 97 -10.5 176.5t-30.5 134.5zM399 461l486 735q-38 32 -84.5 48t-102.5 16q-167 0 -253.5 -133.5t-86.5 -391.5q0 -73 10 -140t31 -134zM70 -27l151 234q-73 107 -109 243t-36 302q0 348 165 553.5t443 205.5
q102 0 184.5 -23t151.5 -71l115 176l161 -102l-133 -207q72 -91 111 -236.5t39 -326.5q0 -343 -169 -544.5t-456 -201.5q-100 0 -180 23.5t-146 71.5l-133 -201z" />
    <glyph glyph-name="Ugrave" unicode="&#xd9;" horiz-adv-x="1460" 
d="M166 547v942h280v-954q0 -166 67 -240t216 -74q158 0 225.5 71.5t67.5 242.5v954h272v-987q0 -254 -146.5 -390.5t-418.5 -136.5q-284 0 -423.5 141.5t-139.5 430.5zM438 1972h258l197 -368h-142z" />
    <glyph glyph-name="Uacute" unicode="&#xda;" horiz-adv-x="1460" 
d="M166 547v942h280v-954q0 -166 67 -240t216 -74q158 0 225.5 71.5t67.5 242.5v954h272v-987q0 -254 -146.5 -390.5t-418.5 -136.5q-284 0 -423.5 141.5t-139.5 430.5zM1024 1972l-313 -368h-142l197 368h258z" />
    <glyph glyph-name="Ucircumflex" unicode="&#xdb;" horiz-adv-x="1460" 
d="M166 547v942h280v-954q0 -166 67 -240t216 -74q158 0 225.5 71.5t67.5 242.5v954h272v-987q0 -254 -146.5 -390.5t-418.5 -136.5q-284 0 -423.5 141.5t-139.5 430.5zM416 1604l196 368h238l196 -368h-141l-174 217l-176 -217h-139z" />
    <glyph glyph-name="Udieresis" unicode="&#xdc;" horiz-adv-x="1460" 
d="M166 547v942h280v-954q0 -166 67 -240t216 -74q158 0 225.5 71.5t67.5 242.5v954h272v-987q0 -254 -146.5 -390.5t-418.5 -136.5q-284 0 -423.5 141.5t-139.5 430.5zM792 1663v244h226v-244h-226zM444 1663v244h226v-244h-226z" />
    <glyph glyph-name="Yacute" unicode="&#xdd;" horiz-adv-x="1147" 
d="M436 0v588l-432 901h295l287 -619l282 619h275l-426 -899v-590h-281zM866 1972l-313 -368h-142l197 368h258z" />
    <glyph glyph-name="Thorn" unicode="&#xde;" horiz-adv-x="1298" 
d="M449 559h208q153 0 217 49t64 162q0 114 -63.5 162.5t-217.5 48.5h-208v-422zM166 0v1489h283v-279h249q263 0 392 -109.5t129 -332.5q0 -217 -126 -329.5t-368 -112.5h-276v-326h-283z" />
    <glyph glyph-name="germandbls" unicode="&#xdf;" horiz-adv-x="1063" 
d="M135 0v1051q0 211 102.5 324.5t292.5 113.5q191 0 288 -102.5t97 -303.5q0 -112 -36 -182.5t-107 -93.5q114 -24 169.5 -124t55.5 -282q0 -201 -87.5 -311t-247.5 -110q-58 0 -108 13.5t-89 39.5l59 182q24 -16 47 -24.5t45 -8.5q60 0 90.5 60.5t30.5 179.5
q0 145 -52.5 206t-178.5 65v195q80 3 119 46t39 131q0 106 -36 157.5t-110 51.5q-66 0 -99.5 -45t-33.5 -135v-1094h-250z" />
    <glyph glyph-name="agrave" unicode="&#xe0;" horiz-adv-x="1049" 
d="M664 522q-183 -25 -267 -79.5t-84 -147.5q0 -55 30 -85t85 -30q60 0 118.5 28t117.5 85v229zM692 0l-22 94q-73 -53 -153 -79.5t-167 -26.5q-134 0 -210.5 76t-76.5 210q0 176 147.5 277.5t461.5 140.5v84q0 59 -39.5 91t-112.5 32t-132.5 -31t-102.5 -92l-172 109
q67 104 170 156.5t241 52.5q186 0 290 -84t104 -234v-631q0 -25 4 -60.5t12 -84.5h-242zM246 1556h258l197 -368h-142z" />
    <glyph glyph-name="aacute" unicode="&#xe1;" horiz-adv-x="1049" 
d="M664 522q-183 -25 -267 -79.5t-84 -147.5q0 -55 30 -85t85 -30q60 0 118.5 28t117.5 85v229zM692 0l-22 94q-73 -53 -153 -79.5t-167 -26.5q-134 0 -210.5 76t-76.5 210q0 176 147.5 277.5t461.5 140.5v84q0 59 -39.5 91t-112.5 32t-132.5 -31t-102.5 -92l-172 109
q67 104 170 156.5t241 52.5q186 0 290 -84t104 -234v-631q0 -25 4 -60.5t12 -84.5h-242zM832 1556l-313 -368h-142l197 368h258z" />
    <glyph glyph-name="acircumflex" unicode="&#xe2;" horiz-adv-x="1049" 
d="M664 522q-183 -25 -267 -79.5t-84 -147.5q0 -55 30 -85t85 -30q60 0 118.5 28t117.5 85v229zM692 0l-22 94q-73 -53 -153 -79.5t-167 -26.5q-134 0 -210.5 76t-76.5 210q0 176 147.5 277.5t461.5 140.5v84q0 59 -39.5 91t-112.5 32t-132.5 -31t-102.5 -92l-172 109
q67 104 170 156.5t241 52.5q186 0 290 -84t104 -234v-631q0 -25 4 -60.5t12 -84.5h-242zM224 1188l196 368h238l196 -368h-141l-174 217l-176 -217h-139z" />
    <glyph glyph-name="atilde" unicode="&#xe3;" horiz-adv-x="1049" 
d="M664 522q-183 -25 -267 -79.5t-84 -147.5q0 -55 30 -85t85 -30q60 0 118.5 28t117.5 85v229zM692 0l-22 94q-73 -53 -153 -79.5t-167 -26.5q-134 0 -210.5 76t-76.5 210q0 176 147.5 277.5t461.5 140.5v84q0 59 -39.5 91t-112.5 32t-132.5 -31t-102.5 -92l-172 109
q67 104 170 156.5t241 52.5q186 0 290 -84t104 -234v-631q0 -25 4 -60.5t12 -84.5h-242zM856 1509q-26 -124 -77 -183.5t-131 -59.5q-22 0 -40 2.5t-34 7.5l-89 27q-19 5 -35 7.5t-30 2.5q-34 0 -55 -18.5t-33 -59.5h-110q24 121 74 178t130 57q21 0 42.5 -3.5t44.5 -10.5
l92 -24q12 -5 25.5 -7t29.5 -2q32 0 53.5 21.5t32.5 64.5h110z" />
    <glyph glyph-name="adieresis" unicode="&#xe4;" horiz-adv-x="1049" 
d="M664 522q-183 -25 -267 -79.5t-84 -147.5q0 -55 30 -85t85 -30q60 0 118.5 28t117.5 85v229zM692 0l-22 94q-73 -53 -153 -79.5t-167 -26.5q-134 0 -210.5 76t-76.5 210q0 176 147.5 277.5t461.5 140.5v84q0 59 -39.5 91t-112.5 32t-132.5 -31t-102.5 -92l-172 109
q67 104 170 156.5t241 52.5q186 0 290 -84t104 -234v-631q0 -25 4 -60.5t12 -84.5h-242zM600 1247v244h226v-244h-226zM252 1247v244h226v-244h-226z" />
    <glyph glyph-name="aring" unicode="&#xe5;" horiz-adv-x="1049" 
d="M436 1425q0 -52 35.5 -87t87.5 -35q51 0 86 35.5t35 86.5t-35 86t-86 35q-52 0 -87.5 -34.5t-35.5 -86.5zM293 1425q0 112 76.5 189.5t187.5 77.5q112 0 190 -78t78 -189t-77.5 -188.5t-190.5 -77.5q-112 0 -188 77t-76 189zM664 522q-183 -25 -267 -79.5t-84 -147.5
q0 -55 30 -85t85 -30q60 0 118.5 28t117.5 85v229zM692 0l-22 94q-73 -53 -153 -79.5t-167 -26.5q-134 0 -210.5 76t-76.5 210q0 176 147.5 277.5t461.5 140.5v84q0 59 -39.5 91t-112.5 32t-132.5 -31t-102.5 -92l-172 109q67 104 170 156.5t241 52.5q186 0 290 -84
t104 -234v-631q0 -25 4 -60.5t12 -84.5h-242z" />
    <glyph glyph-name="ae" unicode="&#xe6;" horiz-adv-x="1626" 
d="M924 674h391q-3 106 -54.5 167.5t-138.5 61.5q-86 0 -139 -60.5t-59 -168.5zM678 518q-192 -35 -277.5 -89.5t-85.5 -139.5q0 -56 34.5 -87.5t94.5 -31.5q50 0 105 27.5t129 89.5v231zM776 141q-93 -82 -192 -121.5t-211 -39.5q-148 0 -231 76t-83 212q0 173 154 277.5
t467 144.5l4 72v8q0 60 -44 96.5t-118 36.5q-64 0 -124.5 -33.5t-106.5 -95.5l-185 111q81 110 180 159.5t236 49.5q101 0 172.5 -27t128.5 -86q61 58 134.5 85.5t166.5 27.5q213 0 328 -146t115 -416v-40l-647 -1q4 -150 61.5 -230.5t161.5 -80.5q76 0 132.5 36.5
t90.5 107.5l184 -115q-67 -114 -171.5 -171.5t-241.5 -57.5q-123 0 -208.5 38.5t-152.5 122.5z" />
    <glyph glyph-name="ccedilla" unicode="&#xe7;" horiz-adv-x="995" 
d="M745 356l197 -104q-55 -134 -162.5 -203t-259.5 -69q-227 0 -345 141t-118 416q0 258 124 406.5t339 148.5q151 0 257.5 -72t154.5 -207l-213 -92q-29 84 -73 123t-109 39q-116 0 -171 -87.5t-55 -273.5q0 -166 51.5 -246.5t157.5 -80.5q76 0 131 39t94 122zM269 -438
v129q80 -21 145 -32t111 -11q52 0 76 17.5t24 55.5t-28 54t-93 16q-23 0 -35 -0.5t-22 -1.5v211h102v-90h15q117 0 176 -48t59 -143q0 -100 -66 -150t-198 -50q-51 0 -119.5 11t-146.5 32z" />
    <glyph glyph-name="egrave" unicode="&#xe8;" horiz-adv-x="1014" 
d="M313 676h392q0 107 -52 167t-143 60q-86 0 -137.5 -59.5t-59.5 -167.5zM942 211q-61 -114 -170 -172.5t-258 -58.5q-215 0 -335 146t-120 409t119.5 411t331.5 148q211 0 327.5 -143t116.5 -402q0 -9 -1 -27.5t-1 -27.5l-643 -1q2 -152 59 -228.5t169 -76.5
q70 0 121.5 32.5t97.5 105.5zM235 1556h258l197 -368h-142z" />
    <glyph glyph-name="eacute" unicode="&#xe9;" horiz-adv-x="1014" 
d="M313 676h392q0 107 -52 167t-143 60q-86 0 -137.5 -59.5t-59.5 -167.5zM942 211q-61 -114 -170 -172.5t-258 -58.5q-215 0 -335 146t-120 409t119.5 411t331.5 148q211 0 327.5 -143t116.5 -402q0 -9 -1 -27.5t-1 -27.5l-643 -1q2 -152 59 -228.5t169 -76.5
q70 0 121.5 32.5t97.5 105.5zM821 1556l-313 -368h-142l197 368h258z" />
    <glyph glyph-name="ecircumflex" unicode="&#xea;" horiz-adv-x="1014" 
d="M313 676h392q0 107 -52 167t-143 60q-86 0 -137.5 -59.5t-59.5 -167.5zM942 211q-61 -114 -170 -172.5t-258 -58.5q-215 0 -335 146t-120 409t119.5 411t331.5 148q211 0 327.5 -143t116.5 -402q0 -9 -1 -27.5t-1 -27.5l-643 -1q2 -152 59 -228.5t169 -76.5
q70 0 121.5 32.5t97.5 105.5zM213 1188l196 368h238l196 -368h-141l-174 217l-176 -217h-139z" />
    <glyph glyph-name="edieresis" unicode="&#xeb;" horiz-adv-x="1014" 
d="M313 676h392q0 107 -52 167t-143 60q-86 0 -137.5 -59.5t-59.5 -167.5zM942 211q-61 -114 -170 -172.5t-258 -58.5q-215 0 -335 146t-120 409t119.5 411t331.5 148q211 0 327.5 -143t116.5 -402q0 -9 -1 -27.5t-1 -27.5l-643 -1q2 -152 59 -228.5t169 -76.5
q70 0 121.5 32.5t97.5 105.5zM589 1247v244h226v-244h-226zM241 1247v244h226v-244h-226z" />
    <glyph glyph-name="igrave" unicode="&#xec;" horiz-adv-x="524" 
d="M135 0v1073h254v-1073h-254zM-31 1556h258l197 -368h-142z" />
    <glyph glyph-name="iacute" unicode="&#xed;" horiz-adv-x="524" 
d="M135 0v1073h254v-1073h-254zM555 1556l-313 -368h-142l197 368h258z" />
    <glyph glyph-name="icircumflex" unicode="&#xee;" horiz-adv-x="524" 
d="M135 0v1073h254v-1073h-254zM-53 1188l196 368h238l196 -368h-141l-174 217l-176 -217h-139z" />
    <glyph glyph-name="idieresis" unicode="&#xef;" horiz-adv-x="524" 
d="M135 0v1073h254v-1073h-254zM323 1247v244h226v-244h-226zM-25 1247v244h226v-244h-226z" />
    <glyph glyph-name="eth" unicode="&#xf0;" horiz-adv-x="1034" 
d="M313 506q0 -161 50.5 -240.5t152.5 -79.5t152.5 79.5t50.5 240.5q0 163 -50.5 243t-152.5 80t-152.5 -80t-50.5 -243zM584 1020q-17 30 -52.5 69.5t-91.5 88.5l-229 -129l-66 108l183 107q-45 33 -148 92l-14 8l65 145q63 -23 133 -58.5t150 -84.5l244 141l65 -110
l-202 -117q180 -148 267 -338t87 -436q0 -248 -122 -388.5t-337 -140.5q-214 0 -336.5 140.5t-122.5 388.5q0 243 119 385.5t318 142.5q25 0 47 -3.5t43 -10.5z" />
    <glyph glyph-name="ntilde" unicode="&#xf1;" horiz-adv-x="1128" 
d="M133 0v1073h234v-127q100 81 175.5 114.5t155.5 33.5q150 0 225.5 -88t75.5 -261v-745h-254v696q0 104 -28 147.5t-94 43.5q-56 0 -114.5 -29t-123.5 -90v-768h-252zM882 1509q-26 -124 -77 -183.5t-131 -59.5q-22 0 -40 2.5t-34 7.5l-89 27q-19 5 -35 7.5t-30 2.5
q-34 0 -55 -18.5t-33 -59.5h-110q24 121 74 178t130 57q21 0 42.5 -3.5t44.5 -10.5l92 -24q12 -5 25.5 -7t29.5 -2q32 0 53.5 21.5t32.5 64.5h110z" />
    <glyph glyph-name="ograve" unicode="&#xf2;" horiz-adv-x="1034" 
d="M313 537q0 -171 51 -255.5t152 -84.5q102 0 152.5 84t50.5 256q0 171 -50 254t-153 83q-102 0 -152.5 -84t-50.5 -253zM57 537q0 262 121.5 409.5t337.5 147.5t337.5 -147.5t121.5 -409.5t-122 -409.5t-337 -147.5t-337 148t-122 409zM225 1556h258l197 -368h-142z" />
    <glyph glyph-name="oacute" unicode="&#xf3;" horiz-adv-x="1034" 
d="M313 537q0 -171 51 -255.5t152 -84.5q102 0 152.5 84t50.5 256q0 171 -50 254t-153 83q-102 0 -152.5 -84t-50.5 -253zM57 537q0 262 121.5 409.5t337.5 147.5t337.5 -147.5t121.5 -409.5t-122 -409.5t-337 -147.5t-337 148t-122 409zM811 1556l-313 -368h-142l197 368
h258z" />
    <glyph glyph-name="ocircumflex" unicode="&#xf4;" horiz-adv-x="1034" 
d="M313 537q0 -171 51 -255.5t152 -84.5q102 0 152.5 84t50.5 256q0 171 -50 254t-153 83q-102 0 -152.5 -84t-50.5 -253zM57 537q0 262 121.5 409.5t337.5 147.5t337.5 -147.5t121.5 -409.5t-122 -409.5t-337 -147.5t-337 148t-122 409zM203 1188l196 368h238l196 -368
h-141l-174 217l-176 -217h-139z" />
    <glyph glyph-name="otilde" unicode="&#xf5;" horiz-adv-x="1034" 
d="M313 537q0 -171 51 -255.5t152 -84.5q102 0 152.5 84t50.5 256q0 171 -50 254t-153 83q-102 0 -152.5 -84t-50.5 -253zM57 537q0 262 121.5 409.5t337.5 147.5t337.5 -147.5t121.5 -409.5t-122 -409.5t-337 -147.5t-337 148t-122 409zM835 1509q-26 -124 -77 -183.5
t-131 -59.5q-22 0 -40 2.5t-34 7.5l-89 27q-19 5 -35 7.5t-30 2.5q-34 0 -55 -18.5t-33 -59.5h-110q24 121 74 178t130 57q21 0 42.5 -3.5t44.5 -10.5l92 -24q12 -5 25.5 -7t29.5 -2q32 0 53.5 21.5t32.5 64.5h110z" />
    <glyph glyph-name="odieresis" unicode="&#xf6;" horiz-adv-x="1034" 
d="M313 537q0 -171 51 -255.5t152 -84.5q102 0 152.5 84t50.5 256q0 171 -50 254t-153 83q-102 0 -152.5 -84t-50.5 -253zM57 537q0 262 121.5 409.5t337.5 147.5t337.5 -147.5t121.5 -409.5t-122 -409.5t-337 -147.5t-337 148t-122 409zM579 1247v244h226v-244h-226z
M231 1247v244h226v-244h-226z" />
    <glyph glyph-name="divide" unicode="&#xf7;" horiz-adv-x="1706" 
d="M854 367q57 0 97 -40.5t40 -97.5q0 -56 -39.5 -95.5t-97.5 -39.5t-97.5 39t-39.5 96t40.5 97.5t96.5 40.5zM254 694h1198v-166h-1198v166zM854 1128q57 0 97 -41t40 -98q0 -56 -39.5 -95.5t-97.5 -39.5t-97.5 39t-39.5 96t40.5 98t96.5 41z" />
    <glyph glyph-name="oslash" unicode="&#xf8;" horiz-adv-x="1034" 
d="M414 211q29 -15 55 -22t51 -7q115 0 170 89.5t55 275.5q0 60 -8.5 112t-25.5 99zM319 332l293 532q-23 13 -47 19t-51 6q-115 0 -169 -91t-54 -284q0 -58 7 -101.5t21 -80.5zM86 -74l104 191q-67 75 -100 178t-33 242q0 265 123.5 411t347.5 146q53 0 96.5 -8.5
t82.5 -26.5l77 143l144 -78l-90 -163q69 -79 103 -183.5t34 -240.5q0 -261 -122 -409t-337 -148q-67 0 -113.5 8.5t-83.5 27.5l-90 -168z" />
    <glyph glyph-name="ugrave" unicode="&#xf9;" horiz-adv-x="1128" 
d="M762 125q-97 -79 -174.5 -112t-159.5 -33q-149 0 -224 86.5t-75 259.5v747h254v-696q0 -104 28.5 -148.5t94.5 -44.5q55 0 113 29.5t124 91.5v768h252v-1073h-233v125zM272 1556h258l197 -368h-142z" />
    <glyph glyph-name="uacute" unicode="&#xfa;" horiz-adv-x="1128" 
d="M762 125q-97 -79 -174.5 -112t-159.5 -33q-149 0 -224 86.5t-75 259.5v747h254v-696q0 -104 28.5 -148.5t94.5 -44.5q55 0 113 29.5t124 91.5v768h252v-1073h-233v125zM858 1556l-313 -368h-142l197 368h258z" />
    <glyph glyph-name="ucircumflex" unicode="&#xfb;" horiz-adv-x="1128" 
d="M762 125q-97 -79 -174.5 -112t-159.5 -33q-149 0 -224 86.5t-75 259.5v747h254v-696q0 -104 28.5 -148.5t94.5 -44.5q55 0 113 29.5t124 91.5v768h252v-1073h-233v125zM250 1188l196 368h238l196 -368h-141l-174 217l-176 -217h-139z" />
    <glyph glyph-name="udieresis" unicode="&#xfc;" horiz-adv-x="1128" 
d="M762 125q-97 -79 -174.5 -112t-159.5 -33q-149 0 -224 86.5t-75 259.5v747h254v-696q0 -104 28.5 -148.5t94.5 -44.5q55 0 113 29.5t124 91.5v768h252v-1073h-233v125zM626 1247v244h226v-244h-226zM278 1247v244h226v-244h-226z" />
    <glyph glyph-name="yacute" unicode="&#xfd;" horiz-adv-x="979" 
d="M385 29l-377 1044h254l236 -704l219 704h248l-336 -1014q-97 -289 -185 -368.5t-249 -79.5q-29 0 -57 4t-56 12v211q26 -6 52 -9t52 -3q84 0 130.5 47t68.5 156zM782 1556l-313 -368h-142l197 368h258z" />
    <glyph glyph-name="thorn" unicode="&#xfe;" horiz-adv-x="1118" 
d="M135 -389v1878h250v-494q53 51 113 75t139 24q185 0 301.5 -155t116.5 -402q0 -250 -114.5 -403.5t-295.5 -153.5q-81 0 -143 29t-117 93v-491h-250zM385 276q48 -46 94 -68t96 -22q106 0 166 93t60 258q0 163 -60.5 253.5t-169.5 90.5q-47 0 -92 -22.5t-94 -72.5v-510z
" />
    <glyph glyph-name="ydieresis" unicode="&#xff;" horiz-adv-x="979" 
d="M385 29l-377 1044h254l236 -704l219 704h248l-336 -1014q-97 -289 -185 -368.5t-249 -79.5q-29 0 -57 4t-56 12v211q26 -6 52 -9t52 -3q84 0 130.5 47t68.5 156zM550 1247v244h226v-244h-226zM202 1247v244h226v-244h-226z" />
    <glyph glyph-name="Cacute" unicode="&#x106;" horiz-adv-x="1266" 
d="M952 444l258 -71q-55 -193 -196 -295.5t-352 -102.5q-290 0 -438 193t-148 569q0 369 157 569.5t445 200.5q201 0 330 -100t172 -289l-258 -63q-28 107 -93.5 162t-166.5 55q-152 0 -227 -133.5t-75 -403.5q0 -262 75 -387t233 -125q103 0 179 59.5t105 161.5zM967 1972
l-313 -368h-142l197 368h258z" />
    <glyph glyph-name="cacute" unicode="&#x107;" horiz-adv-x="995" 
d="M745 356l197 -104q-55 -134 -162.5 -203t-259.5 -69q-227 0 -345 141t-118 416q0 258 124 406.5t339 148.5q151 0 257.5 -72t154.5 -207l-213 -92q-29 84 -73 123t-109 39q-116 0 -171 -87.5t-55 -273.5q0 -166 51.5 -246.5t157.5 -80.5q76 0 131 39t94 122zM817 1556
l-313 -368h-142l197 368h258z" />
    <glyph glyph-name="Ccaron" unicode="&#x10c;" horiz-adv-x="1266" 
d="M952 444l258 -71q-55 -193 -196 -295.5t-352 -102.5q-290 0 -438 193t-148 569q0 369 157 569.5t445 200.5q201 0 330 -100t172 -289l-258 -63q-28 107 -93.5 162t-166.5 55q-152 0 -227 -133.5t-75 -403.5q0 -262 75 -387t233 -125q103 0 179 59.5t105 161.5zM359 1972
h139l176 -217l174 217h141l-196 -368h-238z" />
    <glyph glyph-name="ccaron" unicode="&#x10d;" horiz-adv-x="995" 
d="M745 356l197 -104q-55 -134 -162.5 -203t-259.5 -69q-227 0 -345 141t-118 416q0 258 124 406.5t339 148.5q151 0 257.5 -72t154.5 -207l-213 -92q-29 84 -73 123t-109 39q-116 0 -171 -87.5t-55 -273.5q0 -166 51.5 -246.5t157.5 -80.5q76 0 131 39t94 122zM209 1556
h139l176 -217l174 217h141l-196 -368h-238z" />
    <glyph glyph-name="dcroat" unicode="&#x111;" horiz-adv-x="1128" 
d="M735 285v510q-54 49 -97.5 69.5t-92.5 20.5q-106 0 -166 -92t-60 -256t60 -254t168 -90q50 0 93 21t95 71zM772 115q-58 -70 -127.5 -102.5t-161.5 -32.5q-185 0 -302.5 155t-117.5 402q0 249 114.5 403t295.5 154q82 0 143 -29t119 -94v235h-262v133h262v150h248v-150
h135v-133h-135v-956q0 -37 3 -100t9 -150h-196z" />
    <glyph glyph-name="Gbreve" unicode="&#x11e;" horiz-adv-x="1370" 
d="M1051 0l-15 156q-70 -93 -166 -137t-227 -44q-266 0 -416.5 208t-150.5 577q0 353 162.5 550t453.5 197q200 0 334.5 -97t190.5 -280l-254 -63q-45 105 -113 156t-164 51q-160 0 -243 -134.5t-83 -396.5q0 -252 82.5 -387t235.5 -135q120 0 198.5 80t96.5 221h-279v234
h555v-756h-198zM377 1940h123q6 -77 50.5 -112.5t135.5 -35.5q90 0 134 35.5t50 112.5h123q-11 -157 -85 -230t-222 -73q-147 0 -222.5 74t-86.5 229z" />
    <glyph glyph-name="gbreve" unicode="&#x11f;" horiz-adv-x="1020" 
d="M383 23q-58 -28 -83.5 -54.5t-25.5 -58.5q0 -54 57 -86.5t152 -32.5q128 0 203.5 36.5t75.5 96.5q0 42 -33.5 62.5t-109.5 23.5zM328 721q0 -79 46 -123.5t128 -44.5q78 0 126 47t48 125q0 79 -50 127.5t-130 48.5q-76 0 -122 -49.5t-46 -130.5zM219 76q-78 38 -109.5 75
t-31.5 89q0 58 41.5 110.5t118.5 91.5q-74 45 -112 116t-38 165q0 166 113 269.5t295 103.5q76 0 141 -22t127 -68q39 51 88 76.5t109 25.5q15 0 22 -0.5t14 -1.5v-188h-5q-32 4 -44 4q-29 0 -51 -6.5t-43 -20.5q25 -35 37 -83t12 -110q0 -157 -108 -249.5t-293 -92.5
q-34 0 -63 3.5t-54 9.5q-34 -14 -52 -32t-18 -40q1 -61 206 -74q50 -4 77 -6q229 -17 311 -77.5t82 -200.5q0 -161 -129.5 -246.5t-374.5 -85.5q-223 0 -338.5 68t-115.5 200q0 72 43.5 118.5t142.5 78.5zM201 1524h123q6 -77 50.5 -112.5t135.5 -35.5q90 0 134 35.5
t50 112.5h123q-11 -157 -85 -230t-222 -73q-147 0 -222.5 74t-86.5 229z" />
    <glyph glyph-name="Idotaccent" unicode="&#x130;" horiz-adv-x="672" 
d="M195 0v1489h282v-1489h-282zM219 1657v256h236v-256h-236z" />
    <glyph glyph-name="dotlessi" unicode="&#x131;" horiz-adv-x="524" 
d="M135 0v1073h254v-1073h-254z" />
    <glyph glyph-name="Lslash" unicode="&#x141;" horiz-adv-x="1130" 
d="M174 0v598l-164 -113v172l164 117v715h279v-561l335 231v-172l-335 -233v-500h634v-254h-913z" />
    <glyph glyph-name="lslash" unicode="&#x142;" horiz-adv-x="543" 
d="M145 0v606l-135 -94v152l135 96v729h250v-582l137 99v-154l-137 -98v-754h-250z" />
    <glyph glyph-name="OE" unicode="&#x152;" horiz-adv-x="1972" 
d="M961 465v563q0 84 -85.5 158t-199.5 74q-164 0 -249 -132t-85 -387q0 -253 85 -383.5t249 -130.5q117 0 201 73.5t84 164.5zM971 119q-52 -73 -128 -108.5t-181 -35.5q-281 0 -443 205t-162 561q0 357 162 561.5t443 204.5q106 0 183 -35t126 -106v123h909v-242h-641
v-352h463v-238h-463v-403h670v-254h-938v119z" />
    <glyph glyph-name="oe" unicode="&#x153;" horiz-adv-x="1663" 
d="M965 676h388q-3 109 -54 167t-142 58q-87 0 -137.5 -59.5t-54.5 -165.5zM315 537q0 -171 51 -255.5t152 -84.5q102 0 152.5 84t50.5 256q0 171 -50 254t-153 83q-102 0 -152.5 -84t-50.5 -253zM844 113q-64 -72 -140.5 -104t-185.5 -32q-215 0 -338 148.5t-123 409.5
t122.5 410t338.5 149q105 0 184 -34t138 -104q59 69 138 103.5t177 34.5q218 0 333.5 -144.5t115.5 -417.5v-40h-643v-21q0 -138 58 -212.5t167 -74.5q70 0 124 35t93 105l186 -117q-69 -115 -172.5 -172.5t-238.5 -57.5q-110 0 -190 32.5t-144 103.5z" />
    <glyph glyph-name="Scedilla" unicode="&#x15e;" horiz-adv-x="1200" 
d="M55 336l254 113q59 -119 131.5 -173.5t171.5 -54.5q112 0 177 51t65 138q0 69 -48 115.5t-173 92.5q-17 7 -49 18q-219 80 -305 136q-85 54 -130 138t-45 190q0 180 134.5 292.5t351.5 112.5q190 0 316.5 -82t185.5 -243l-254 -93q-47 100 -111 145.5t-158 45.5
q-91 0 -143.5 -42.5t-52.5 -115.5q0 -113 257 -214q79 -31 124 -50q215 -91 292.5 -186t77.5 -248q0 -206 -135 -324t-371 -118q-205 0 -347.5 90t-215.5 266zM371 -438v129q80 -21 145 -32t111 -11q52 0 76 17.5t24 55.5t-28 54t-93 16q-23 0 -35 -0.5t-22 -1.5v211h102
v-90h15q117 0 176 -48t59 -143q0 -100 -66 -150t-198 -50q-51 0 -119.5 11t-146.5 32z" />
    <glyph glyph-name="scedilla" unicode="&#x15f;" horiz-adv-x="901" 
d="M45 195l172 135q61 -79 121 -116.5t125 -37.5q69 0 109 32t40 87q0 81 -169 143q-18 7 -27 11q-201 76 -268.5 147t-67.5 184q0 138 102.5 226t266.5 88q110 0 198.5 -40t163.5 -124l-160 -139q-52 55 -103.5 81.5t-105.5 26.5q-64 0 -100.5 -28.5t-36.5 -77.5
q0 -60 169 -123q45 -17 71 -27q171 -66 233 -139.5t62 -196.5q0 -149 -102.5 -239.5t-272.5 -90.5q-133 0 -234 52.5t-186 165.5zM222 -438v129q80 -21 145 -32t111 -11q52 0 76 17.5t24 55.5t-28 54t-93 16q-23 0 -35 -0.5t-22 -1.5v211h102v-90h15q117 0 176 -48t59 -143
q0 -100 -66 -150t-198 -50q-51 0 -119.5 11t-146.5 32z" />
    <glyph glyph-name="Scaron" unicode="&#x160;" horiz-adv-x="1200" 
d="M55 336l254 113q59 -119 131.5 -173.5t171.5 -54.5q112 0 177 51t65 138q0 69 -48 115.5t-173 92.5q-17 7 -49 18q-219 80 -305 136q-85 54 -130 138t-45 190q0 180 134.5 292.5t351.5 112.5q190 0 316.5 -82t185.5 -243l-254 -93q-47 100 -111 145.5t-158 45.5
q-91 0 -143.5 -42.5t-52.5 -115.5q0 -113 257 -214q79 -31 124 -50q215 -91 292.5 -186t77.5 -248q0 -206 -135 -324t-371 -118q-205 0 -347.5 90t-215.5 266zM285 1972h139l176 -217l174 217h141l-196 -368h-238z" />
    <glyph glyph-name="scaron" unicode="&#x161;" horiz-adv-x="901" 
d="M45 195l172 135q61 -79 121 -116.5t125 -37.5q69 0 109 32t40 87q0 81 -169 143q-18 7 -27 11q-201 76 -268.5 147t-67.5 184q0 138 102.5 226t266.5 88q110 0 198.5 -40t163.5 -124l-160 -139q-52 55 -103.5 81.5t-105.5 26.5q-64 0 -100.5 -28.5t-36.5 -77.5
q0 -60 169 -123q45 -17 71 -27q171 -66 233 -139.5t62 -196.5q0 -149 -102.5 -239.5t-272.5 -90.5q-133 0 -234 52.5t-186 165.5zM136 1556h139l176 -217l174 217h141l-196 -368h-238z" />
    <glyph glyph-name="Ydieresis" unicode="&#x178;" horiz-adv-x="1147" 
d="M436 0v588l-432 901h295l287 -619l282 619h275l-426 -899v-590h-281zM634 1663v244h226v-244h-226zM286 1663v244h226v-244h-226z" />
    <glyph glyph-name="Zcaron" unicode="&#x17d;" horiz-adv-x="1120" 
d="M31 0v246l721 1001h-672v242h983v-234l-731 -1009h741v-246h-1042zM246 1972h139l176 -217l174 217h141l-196 -368h-238z" />
    <glyph glyph-name="zcaron" unicode="&#x17e;" horiz-adv-x="920" 
d="M41 0v182l510 688h-467v203h782v-180l-508 -680h508v-213h-825zM146 1556h139l176 -217l174 217h141l-196 -368h-238z" />
    <glyph glyph-name="florin" unicode="&#x192;" horiz-adv-x="1241" 
d="M51 -367l39 244q29 -13 55 -20t48 -7q50 0 81.5 34t44.5 104l148 764h-193v202h236l12 60q59 280 143.5 386.5t237.5 106.5q36 0 76.5 -5t85.5 -15l-35 -225q-36 13 -58.5 18.5t-37.5 5.5q-54 0 -84.5 -37t-50.5 -133l-37 -162h205v-202h-238l-127 -648
q-55 -279 -142.5 -383t-256.5 -104q-50 0 -146 16h-6z" />
    <glyph glyph-name="circumflex" unicode="&#x2c6;" 
d="M197 1188l196 368h238l196 -368h-141l-174 217l-176 -217h-139z" />
    <glyph glyph-name="caron" unicode="&#x2c7;" 
d="M197 1556h139l176 -217l174 217h141l-196 -368h-238z" />
    <glyph glyph-name="breve" unicode="&#x2d8;" 
d="M203 1524h123q6 -77 50.5 -112.5t135.5 -35.5q90 0 134 35.5t50 112.5h123q-11 -157 -85 -230t-222 -73q-147 0 -222.5 74t-86.5 229z" />
    <glyph glyph-name="dotaccent" unicode="&#x2d9;" 
d="M395 1241v256h236v-256h-236z" />
    <glyph glyph-name="ring" unicode="&#x2da;" 
d="M391 1434q0 -53 34.5 -87t86.5 -34t87.5 35t35.5 86q0 50 -36 86t-87 36q-52 0 -86.5 -35t-34.5 -87zM248 1434q0 111 76.5 188.5t187.5 77.5q112 0 189 -77.5t77 -188.5q0 -113 -77 -190t-189 -77t-188 77t-76 190z" />
    <glyph glyph-name="ogonek" unicode="&#x2db;" 
d="M627 0q-63 -51 -95 -102.5t-32 -102.5q0 -40 20 -60t62 -20h102v-174h-106q-118 0 -178 46.5t-60 138.5q0 71 45 136t145 138h97z" />
    <glyph glyph-name="tilde" unicode="&#x2dc;" 
d="M829 1509q-26 -124 -77 -183.5t-131 -59.5q-22 0 -40 2.5t-34 7.5l-89 27q-19 5 -35 7.5t-30 2.5q-34 0 -55 -18.5t-33 -59.5h-110q24 121 74 178t130 57q21 0 42.5 -3.5t44.5 -10.5l92 -24q12 -5 25.5 -7t29.5 -2q32 0 53.5 21.5t32.5 64.5h110z" />
    <glyph glyph-name="hungarumlaut" unicode="&#x2dd;" 
d="M563 1188l154 368h229l-270 -368h-113zM295 1188l115 368h221l-232 -368h-104z" />
    <glyph glyph-name="Omega" unicode="&#x3a9;" horiz-adv-x="1569" 
d="M1194 213h305v-213h-602v229q160 94 242 244.5t82 351.5q0 210 -121 341.5t-316 131.5q-197 0 -316.5 -132.5t-119.5 -352.5q0 -191 84 -342t240 -242v-229h-602v213h305q-144 130 -211.5 274t-67.5 322q0 314 190.5 508t497.5 194q303 0 496 -192.5t193 -493.5
q0 -190 -65.5 -333t-213.5 -279z" />
    <glyph glyph-name="pi" unicode="&#x3c0;" horiz-adv-x="1368" 
d="M360 889h-45q-54 0 -83.5 -31.5t-39.5 -99.5h-174q28 187 100 255t242 68h953l-39 -192h-193l-84 -437q-2 -13 -8 -41q-22 -113 -22 -147q0 -58 23 -82t77 -24q18 0 42.5 2.5t59.5 7.5l-34 -168q-29 -8 -61 -12t-75 -4q-139 0 -202.5 48t-63.5 154q0 77 52 344l1 6
l70 353h-268l-174 -889h-226z" />
    <glyph glyph-name="endash" unicode="&#x2013;" 
d="M0 449v174h1024v-174h-1024z" />
    <glyph glyph-name="emdash" unicode="&#x2014;" horiz-adv-x="2048" 
d="M0 449v174h2048v-174h-2048z" />
    <glyph glyph-name="quoteleft" unicode="&#x2018;" horiz-adv-x="559" 
d="M403 1489l-102 -324h119v-288h-279v307l129 305h133z" />
    <glyph glyph-name="quoteright" unicode="&#x2019;" horiz-adv-x="559" 
d="M154 877l102 323h-117v289h277v-307l-129 -305h-133z" />
    <glyph glyph-name="quotesinglbase" unicode="&#x201a;" horiz-adv-x="559" 
d="M154 -324l102 324h-117v289h277v-307l-129 -306h-133z" />
    <glyph glyph-name="quotedblleft" unicode="&#x201c;" horiz-adv-x="895" 
d="M344 1489l-102 -324h116v-288h-276v307l129 305h133zM799 1489l-103 -324h119v-288h-278v307l129 305h133z" />
    <glyph glyph-name="quotedblright" unicode="&#x201d;" horiz-adv-x="895" 
d="M551 877l104 323h-118v289h276v-307l-129 -305h-133zM96 877l103 323h-117v289h276v-307l-129 -305h-133z" />
    <glyph glyph-name="quotedblbase" unicode="&#x201e;" horiz-adv-x="895" 
d="M551 -324l104 324h-118v289h276v-307l-129 -306h-133zM96 -324l103 324h-117v289h276v-307l-129 -306h-133z" />
    <glyph glyph-name="dagger" unicode="&#x2020;" 
d="M633 1489l-80 -428l340 78v-240l-342 86q11 -79 32.5 -167.5t53.5 -188.5q-31 -130 -52 -349.5t-30 -506.5h-86q-9 287 -30 506.5t-52 349.5q32 100 53.5 188.5t32.5 167.5l-342 -86v240l340 -78l-80 428h242z" />
    <glyph glyph-name="daggerdbl" unicode="&#x2021;" 
d="M387 635q28 72 49.5 159.5t36.5 190.5l-342 -86v240l340 -78l-80 428h242l-80 -428l340 78v-240l-342 86q15 -101 36.5 -188.5t49.5 -161.5q-28 -72 -49.5 -159.5t-36.5 -190.5l342 86v-240l-340 78l80 -426h-242l80 426l-340 -78v240l342 -86q-15 101 -36.5 188.5
t-49.5 161.5z" />
    <glyph glyph-name="bullet" unicode="&#x2022;" horiz-adv-x="1208" 
d="M307 762q0 123 87 209t210 86q122 0 208.5 -86.5t86.5 -208.5t-87.5 -209.5t-209.5 -87.5q-123 0 -209 87t-86 210z" />
    <glyph glyph-name="ellipsis" unicode="&#x2026;" horiz-adv-x="2048" 
d="M201 0v297h281v-297h-281zM883 0v297h281v-297h-281zM1567 0v297h281v-297h-281z" />
    <glyph glyph-name="perthousand" unicode="&#x2030;" horiz-adv-x="2714" 
d="M373 -25l882 1532h172l-884 -1532h-170zM2114 346q0 -70 48 -119t117 -49q70 0 119 49t49 119t-48.5 118t-119.5 48q-70 0 -117.5 -48t-47.5 -118zM1911 346q0 155 106 261t262 106t262.5 -106t106.5 -261q0 -154 -108.5 -262.5t-260.5 -108.5t-260 108.5t-108 262.5z
M1202 346q0 -70 48.5 -119t117.5 -49q70 0 119 49t49 119t-49 118t-119 48t-118 -48t-48 -118zM999 346q0 155 106.5 261t262.5 106t262.5 -106t106.5 -261q0 -154 -108.5 -262.5t-260.5 -108.5q-153 0 -261 108.5t-108 262.5zM264 1139q0 -70 49 -118t119 -48t118 48
t48 118q0 69 -48 117.5t-118 48.5t-119 -48.5t-49 -117.5zM63 1139q0 156 106.5 262t262.5 106q155 0 262 -106.5t107 -261.5q0 -154 -108.5 -261.5t-260.5 -107.5q-153 0 -261 107.5t-108 261.5z" />
    <glyph glyph-name="guilsinglleft" unicode="&#x2039;" horiz-adv-x="672" 
d="M319 209l-243 326l243 327h230l-246 -327l246 -326h-230z" />
    <glyph glyph-name="guilsinglright" unicode="&#x203a;" horiz-adv-x="672" 
d="M125 209l246 326l-246 327h227l246 -327l-246 -326h-227z" />
    <glyph glyph-name="franc" unicode="&#x20a3;" horiz-adv-x="1862" 
d="M166 0v1489h940v-242h-657v-350h497v-242h-497v-655h-283zM1292 0v1073h242v-178q52 98 119 147.5t147 49.5q14 0 20.5 -0.5t12.5 -2.5v-264h-12q-85 0 -156 -44t-115 -124v-657h-258z" />
    <glyph glyph-name="trademark" unicode="&#x2122;" horiz-adv-x="1706" 
d="M809 1460h170l141 -360l133 360h170v-542h-114v428l-160 -428h-59l-166 428v-428h-115v542zM225 1460h467v-94h-168v-448h-129v448h-170v94z" />
    <glyph glyph-name="partialdiff" unicode="&#x2202;" horiz-adv-x="1075" 
d="M758 639q17 103 26 186.5t9 147.5q0 120 -29 174.5t-92 54.5q-62 0 -147 -58.5t-122 -58.5t-64.5 26t-27.5 60q0 66 79 115t200 49q176 0 287.5 -159t111.5 -422q0 -338 -150 -558.5t-376 -220.5q-161 0 -266 112t-105 286q0 193 113 322.5t278 129.5q101 0 167.5 -45
t107.5 -141zM705 504q0 116 -41 178.5t-117 62.5q-105 0 -174.5 -131.5t-69.5 -337.5q0 -116 40.5 -177.5t117.5 -61.5q105 0 174.5 132.5t69.5 334.5z" />
    <glyph glyph-name="Delta" unicode="&#x2206;" horiz-adv-x="1395" 
d="M698 1196l-379 -983h756zM569 1473h256l574 -1473h-1403z" />
    <glyph glyph-name="product" unicode="&#x220f;" horiz-adv-x="1579" 
d="M154 1473h1267v-1866h-286v1622h-695v-1622h-286v1866z" />
    <glyph glyph-name="summation" unicode="&#x2211;" horiz-adv-x="1421" 
d="M61 1473h1280v-226h-921l647 -684l-661 -729h974v-227h-1347v160l712 786l-684 719v201z" />
    <glyph glyph-name="minus" unicode="&#x2212;" horiz-adv-x="1706" 
d="M254 696h1198v-170h-1198v170z" />
    <glyph glyph-name="fraction" unicode="&#x2215;" horiz-adv-x="342" 
d="M-342 -25l883 1532h141l-881 -1532h-143z" />
    <glyph glyph-name="periodcentered" unicode="&#x2219;" horiz-adv-x="621" 
d="M143 741q0 71 49 119.5t119 48.5t118 -48.5t48 -119.5q0 -69 -48.5 -117.5t-117.5 -48.5q-70 0 -119 48.5t-49 117.5z" />
    <glyph glyph-name="radical" unicode="&#x221a;" horiz-adv-x="1323" 
d="M1128 1675h197v-110h-108l-594 -1606h-82l-316 872l-131 -49l-28 95l305 108l247 -688z" />
    <glyph glyph-name="infinity" unicode="&#x221e;" horiz-adv-x="1706" 
d="M928 559q45 -81 109.5 -122.5t146.5 -41.5q97 0 159 61.5t62 157.5q0 95 -57 158.5t-142 63.5q-78 0 -142 -63.5t-136 -213.5zM780 662q-46 81 -111 123t-145 42q-98 0 -159.5 -62t-61.5 -159q0 -94 56.5 -156.5t140.5 -62.5q80 0 144.5 62.5t135.5 212.5zM862 471
q-71 -135 -148.5 -197.5t-172.5 -62.5q-137 0 -232.5 114.5t-95.5 284.5q0 179 85 289.5t220 110.5q93 0 168.5 -60t157.5 -200q71 139 149.5 200.5t184.5 61.5q127 0 222 -116t95 -284q0 -178 -84.5 -288.5t-220.5 -110.5q-92 0 -166.5 57.5t-161.5 200.5z" />
    <glyph glyph-name="integral" unicode="&#x222b;" horiz-adv-x="1120" 
d="M324 -258q106 0 122 692q2 81 3 123q13 538 113 766.5t312 228.5q87 0 143 -45.5t56 -111.5q0 -61 -34 -95t-95 -34q-45 0 -74.5 22.5t-40.5 65.5q-4 17 -6 45q-3 40 -26 41q-101 0 -119 -615q-5 -161 -8 -249q-10 -280 -30.5 -427t-59.5 -245q-55 -136 -139.5 -205.5
t-194.5 -69.5q-87 0 -142 44t-55 112q0 63 35.5 97t99.5 34q39 0 66 -18t41 -54q6 -16 9 -59t24 -43z" />
    <glyph glyph-name="approxequal" unicode="&#x2248;" horiz-adv-x="1706" 
d="M1530 592v-186q-107 -73 -200 -106.5t-189 -33.5q-89 0 -279.5 66.5t-298.5 66.5q-84 0 -173.5 -36t-211.5 -121v184q112 75 206.5 110t180.5 35q118 0 309 -67.5t277 -67.5q83 0 172 36.5t207 119.5zM1530 979v-184q-109 -75 -201.5 -108.5t-187.5 -33.5
q-88 0 -278.5 67.5t-299.5 67.5q-82 0 -170 -35t-215 -122v184q109 73 205 109.5t182 36.5q120 0 310 -68t268 -68q92 0 181 35t206 119z" />
    <glyph glyph-name="notequal" unicode="&#x2260;" horiz-adv-x="1706" 
d="M1204 1212l123 -100l-170 -215h295v-162h-403l-197 -250h600v-161h-707l-249 -314l-123 99l170 215h-289v161h393l199 250h-592v162h700z" />
    <glyph glyph-name="lessequal" unicode="&#x2264;" horiz-adv-x="1706" 
d="M260 178h1186v-166h-1186v166zM1446 1223v-176l-889 -287l889 -287v-176l-1186 389v145z" />
    <glyph glyph-name="greaterequal" unicode="&#x2265;" horiz-adv-x="1706" 
d="M260 178h1188v-166h-1188v166zM260 1223l1186 -392v-145l-1186 -389v176l891 287l-891 287v176z" />
    <glyph glyph-name="lozenge" unicode="&#x25ca;" horiz-adv-x="1012" 
d="M506 1409l-385 -817l385 -825l385 825zM506 1653l500 -1061l-500 -1069l-500 1069z" />
    <glyph glyph-name="apple" unicode="&#xf000;" horiz-adv-x="1618" 
d="M836 1216q-1 6 -1.5 14t-0.5 23q0 124 95 229.5t236 131.5q1 -10 1.5 -23t0.5 -39q0 -131 -103.5 -234.5t-203.5 -103.5h-8q-3 0 -7.5 1t-8.5 1zM1505 403q-114 -247 -205 -342.5t-204 -95.5q-50 0 -131.5 33t-122.5 33q-45 0 -131 -33t-127 -33q-64 0 -128.5 44
t-129.5 132q-102 140 -157.5 295.5t-55.5 300.5q0 219 125 356.5t323 137.5q68 0 155 -34t124 -34q34 0 121.5 35t152.5 35q110 0 198 -40t161 -124q-102 -65 -151.5 -145.5t-49.5 -182.5q0 -113 60 -200t173 -138z" />
    <glyph glyph-name="fi" unicode="&#xf001;" horiz-adv-x="1100" 
d="M711 1249v240h254v-240h-254zM711 0v1073h254v-1073h-254zM152 0v866h-150v207h150v166q0 130 80 200t229 70q35 0 73.5 -3t77.5 -9v-213q-15 2 -31.5 3t-48.5 1q-73 0 -101 -27t-28 -102v-86h209v-207h-202v-866h-258z" />
    <glyph glyph-name="fl" unicode="&#xf002;" horiz-adv-x="1100" 
d="M711 0v1489h254v-1489h-254zM152 0v866h-150v207h150v166q0 130 80 200t229 70q35 0 73.5 -3t77.5 -9v-213q-15 2 -31.5 3t-48.5 1q-73 0 -101 -27t-28 -102v-86h209v-207h-202v-866h-258z" />
    </font>
</defs>
</svg>
